<?xml version="1.0" encoding="utf-8"?>
<!-- Generator: Adobe Illustrator 16.0.3, SVG Export Plug-In . SVG Version: 6.00 Build 0)  -->
<!DOCTYPE svg PUBLIC "-//W3C//DTD SVG 1.1//EN" "http://www.w3.org/Graphics/SVG/1.1/DTD/svg11.dtd">
<svg version="1.1" id="レイヤー_1" xmlns="http://www.w3.org/2000/svg" xmlns:xlink="http://www.w3.org/1999/xlink" x="0px"
	 y="0px" width="320px" height="50px" viewBox="0 0 320 50" enable-background="new 0 0 320 50" xml:space="preserve">
<g>
	<path d="M51.331-125.789c3.639,0.959,5.839,3.799,5.839,7.398c0,2.44-1.04,4.759-2.879,6.399c-2.12,1.88-5.639,2.959-11.598,2.959
		c-3,0-5.319-0.2-6.879-0.44v-30.315c1.84-0.36,5.119-0.64,8.359-0.64c3.679,0,6.439,0.4,8.718,1.88c2,1.28,3.2,3.399,3.2,5.999
		c0,2.68-1.44,5.279-4.759,6.639V-125.789z M44.452-127.869c2.959,0,4.679-1.6,4.679-3.84c0-2.479-1.72-3.559-4.079-3.559
		c-1.08,0-1.76,0.08-2.24,0.2v7.199H44.452z M42.812-114.431c0.52,0.12,1.12,0.12,1.959,0.12c2.68,0,5.04-1.28,5.04-4.279
		c0-3.12-2.64-4.199-5.199-4.199h-1.8V-114.431z"/>
	<path d="M78.69-110.152c-2.08,0.84-4.759,1.24-7.438,1.24c-7.079,0-11.078-4.239-11.078-11.278c0-6.439,3.759-12.078,10.478-12.078
		c5.359,0,9.159,3.599,9.159,11.238c0,1.08-0.04,2.2-0.2,2.96H66.892c0.16,2.679,2.56,3.919,5.479,3.919
		c2.04,0,3.799-0.36,5.399-0.88L78.69-110.152z M73.371-122.91c0-2-0.64-4.52-3.08-4.52c-2.399,0-3.319,2.64-3.439,4.52H73.371z"/>
	<path d="M102.809-131.828l-4.919,15.997c-2.32,6.919-4.199,10.718-6.639,13.198c-2.279,2.2-4.799,3.079-6.279,3.319l-1.72-5.998
		c2.919-0.601,5.719-3.52,5.719-4.84c0-0.24-0.08-0.56-0.28-1l-7.358-20.676h7.718l2.64,11.038c0.32,1.28,0.64,2.72,0.84,3.919h0.12
		c0.24-1.2,0.48-2.64,0.72-3.879l2.16-11.078H102.809z"/>
	<path d="M125.169-120.71c0,8.758-5.639,11.838-10.559,11.838c-6.239,0-10.518-4.319-10.518-11.558
		c0-7.559,4.559-11.838,10.758-11.838C121.29-132.268,125.169-127.469,125.169-120.71z M114.69-127.149
		c-2.64,0-3.479,3.439-3.479,6.559c0,3.76,1.08,6.599,3.479,6.599c2.28,0,3.359-3,3.359-6.599
		C118.05-123.91,117.09-127.149,114.69-127.149z"/>
	<path d="M148.929-109.312h-7.039v-13.078c0-2.36-0.72-4.08-2.719-4.08c-1.48,0-3.04,1.08-3.04,3.959v13.198h-7.039v-15.317
		c0-2.68-0.08-5.079-0.16-7.199h6.039l0.36,2.839h0.12c1-1.52,3.12-3.279,6.239-3.279c4.719,0,7.239,3.399,7.239,9.238V-109.312z"/>
	<path d="M173.568-116.191c0,2.479,0.08,5.079,0.16,6.879h-6.159l-0.32-2.919h-0.12c-1.2,2.12-3.52,3.359-5.919,3.359
		c-5.159,0-8.519-4.959-8.519-11.598c0-7.639,4.159-11.798,8.838-11.798c2.399,0,4.119,0.96,4.879,2.319h0.12v-11.598h7.039
		V-116.191z M166.529-122.63c0-3.119-1.839-4.039-3.04-4.039c-2.56,0-3.719,2.799-3.719,6.199c0,3.879,1.52,5.919,3.68,5.919
		c1.319,0,3.079-0.84,3.079-3.919V-122.63z"/>
	<path d="M202.688-125.789c3.639,0.959,5.839,3.799,5.839,7.398c0,2.44-1.04,4.759-2.879,6.399c-2.12,1.88-5.639,2.959-11.598,2.959
		c-3,0-5.319-0.2-6.879-0.44v-30.315c1.84-0.36,5.119-0.64,8.359-0.64c3.679,0,6.439,0.4,8.718,1.88c2,1.28,3.2,3.399,3.2,5.999
		c0,2.68-1.44,5.279-4.759,6.639V-125.789z M195.81-127.869c2.959,0,4.679-1.6,4.679-3.84c0-2.479-1.72-3.559-4.079-3.559
		c-1.08,0-1.76,0.08-2.24,0.2v7.199H195.81z M194.17-114.431c0.52,0.12,1.12,0.12,1.959,0.12c2.68,0,5.04-1.28,5.04-4.279
		c0-3.12-2.64-4.199-5.199-4.199h-1.8V-114.431z"/>
	<path d="M232.447-120.71c0,8.758-5.64,11.838-10.559,11.838c-6.238,0-10.518-4.319-10.518-11.558
		c0-7.559,4.559-11.838,10.758-11.838C228.567-132.268,232.447-127.469,232.447-120.71z M221.969-127.149
		c-2.64,0-3.479,3.439-3.479,6.559c0,3.76,1.08,6.599,3.479,6.599c2.279,0,3.359-3,3.359-6.599
		C225.328-123.91,224.368-127.149,221.969-127.149z"/>
	<path d="M256.047-116.551c0,2.759,0.12,5.239,0.2,7.239h-6.079l-0.32-2.799h-0.119c-0.96,1.439-3,3.239-6.279,3.239
		c-4.56,0-7.119-3.08-7.119-9.559v-13.397h7.039v12.398c0,3.04,0.84,4.799,2.8,4.799c1.439,0,2.839-1.12,2.839-3.399v-13.797h7.039
		V-116.551z"/>
	<path d="M280.687-109.312h-7.039v-13.078c0-2.36-0.72-4.08-2.72-4.08c-1.479,0-3.039,1.08-3.039,3.959v13.198h-7.039v-15.317
		c0-2.68-0.08-5.079-0.16-7.199h6.039l0.36,2.839h0.12c1-1.52,3.119-3.279,6.238-3.279c4.72,0,7.239,3.399,7.239,9.238V-109.312z"/>
	<path d="M300.606-109.752c-0.959,0.44-2.959,0.84-5.159,0.84c-6.719,0-10.998-4.199-10.998-11.398
		c0-6.799,4.399-11.918,11.958-11.918c1.76,0,3.439,0.36,4.439,0.72l-1,5.319c-0.72-0.24-1.68-0.52-3.079-0.52
		c-3.199,0-5.239,2.479-5.199,6.119c0,3.919,2.239,6.119,5.239,6.119c1.239,0,2.279-0.2,3.159-0.56L300.606-109.752z"/>
	<path d="M321.526-110.152c-2.08,0.84-4.76,1.24-7.439,1.24c-7.078,0-11.078-4.239-11.078-11.278c0-6.439,3.76-12.078,10.479-12.078
		c5.359,0,9.158,3.599,9.158,11.238c0,1.08-0.04,2.2-0.199,2.96h-12.719c0.16,2.679,2.56,3.919,5.479,3.919
		c2.04,0,3.8-0.36,5.399-0.88L321.526-110.152z M316.207-122.91c0-2-0.64-4.52-3.079-4.52c-2.4,0-3.32,2.64-3.439,4.52H316.207z"/>
</g>
<g>
	<path d="M35.4-191.759h12.5c2.083,0,3.801,0.679,5.156,2.031c1.25,1.25,1.875,2.917,1.875,5c0,1.667-0.574,3.074-1.719,4.219
		c-0.625,0.625-1.406,1.094-2.344,1.406c1.25,0.417,2.239,0.991,2.969,1.719c1.25,1.25,1.875,2.813,1.875,4.688
		c0,2.292-0.781,4.219-2.344,5.781c-1.25,1.25-3.125,1.875-5.625,1.875H35.4V-191.759z M38.994-188.79v8.281h8.438
		c1.04,0,1.926-0.364,2.656-1.094c0.833-0.833,1.25-1.926,1.25-3.281c0-1.145-0.417-2.134-1.25-2.969
		c-0.625-0.625-1.406-0.938-2.344-0.938H38.994z M38.994-177.54v9.531h7.969c1.563,0,2.759-0.415,3.594-1.25
		c0.938-0.938,1.406-2.083,1.406-3.438c0-1.458-0.417-2.603-1.25-3.438c-0.938-0.938-2.188-1.406-3.75-1.406H38.994z"/>
	<path d="M62.744-180.665c1.458-1.458,3.333-2.188,5.625-2.188c2.188,0,4.063,0.781,5.625,2.344c1.458,1.46,2.188,3.699,2.188,6.719
		H63.525c0,2.188,0.52,3.804,1.563,4.844c0.938,0.938,2.134,1.406,3.594,1.406c1.458,0,2.5-0.313,3.125-0.938
		c0.728-0.728,1.094-1.563,1.094-2.5h3.438c-0.417,1.875-1.094,3.281-2.031,4.219c-1.355,1.355-3.23,2.031-5.625,2.031
		c-2.5,0-4.531-0.781-6.094-2.344c-1.667-1.665-2.5-3.906-2.5-6.719S60.971-178.893,62.744-180.665z M65.087-178.946
		c-0.73,0.73-1.199,1.616-1.406,2.656h8.906c0-1.04-0.417-1.978-1.25-2.813c-0.73-0.728-1.772-1.094-3.125-1.094
		C66.962-180.196,65.92-179.779,65.087-178.946z"/>
	<path d="M78.525-182.696h3.438l5.625,13.906l5.625-13.906h3.438l-7.813,18.75c-0.625,1.563-1.25,2.656-1.875,3.281
		c-0.835,0.833-1.875,1.25-3.125,1.25c-1.46,0-2.397-0.21-2.813-0.625v-2.969c0.833,0.415,1.719,0.625,2.656,0.625
		c0.52,0,0.989-0.21,1.406-0.625c0.415-0.417,0.728-0.991,0.938-1.719L78.525-182.696z"/>
	<path d="M101.65-180.509c1.563-1.563,3.489-2.344,5.781-2.344c2.29,0,4.219,0.781,5.781,2.344c1.77,1.772,2.656,4.011,2.656,6.719
		c0,2.71-0.886,4.949-2.656,6.719c-1.563,1.563-3.491,2.344-5.781,2.344c-2.292,0-4.219-0.781-5.781-2.344
		c-1.772-1.77-2.656-4.009-2.656-6.719C98.994-176.498,99.877-178.736,101.65-180.509z M104.306-178.79
		c-1.25,1.25-1.875,2.917-1.875,5c0,2.085,0.571,3.699,1.719,4.844c0.938,0.938,2.031,1.406,3.281,1.406s2.344-0.469,3.281-1.406
		c1.145-1.145,1.719-2.759,1.719-4.844c0-2.083-0.625-3.75-1.875-5c-0.835-0.833-1.875-1.25-3.125-1.25
		S105.139-179.623,104.306-178.79z"/>
	<path d="M123.056-165.04h-3.125v-17.5h3.125v3.125c1.875-2.29,3.853-3.438,5.938-3.438c2.083,0,3.75,0.625,5,1.875
		c0.833,0.835,1.25,1.824,1.25,2.969v12.969h-3.125v-12.031c0-0.938-0.313-1.719-0.938-2.344s-1.511-0.938-2.656-0.938
		c-1.042,0-2.085,0.522-3.125,1.563c-1.563,1.563-2.344,3.23-2.344,5V-165.04z"/>
	<path d="M152.275-191.759h3.125v26.719h-3.125v-2.188c-1.147,1.667-2.71,2.5-4.688,2.5c-2.188,0-3.906-0.625-5.156-1.875
		c-1.875-1.875-2.813-4.27-2.813-7.188c0-3.125,0.833-5.52,2.5-7.188c1.353-1.353,2.969-2.031,4.844-2.031
		c2.29,0,4.063,0.886,5.313,2.656V-191.759z M144.619-178.946c-1.042,1.042-1.563,2.761-1.563,5.156
		c0,2.292,0.571,4.011,1.719,5.156c0.728,0.73,1.614,1.094,2.656,1.094c1.25,0,2.29-0.415,3.125-1.25
		c1.145-1.145,1.719-2.813,1.719-5s-0.625-3.906-1.875-5.156c-0.835-0.833-1.824-1.25-2.969-1.25
		C146.389-180.196,145.451-179.779,144.619-178.946z"/>
	<path d="M172.275-191.759h12.5c2.083,0,3.801,0.679,5.156,2.031c1.25,1.25,1.875,2.917,1.875,5c0,1.667-0.574,3.074-1.719,4.219
		c-0.625,0.625-1.406,1.094-2.344,1.406c1.25,0.417,2.239,0.991,2.969,1.719c1.25,1.25,1.875,2.813,1.875,4.688
		c0,2.292-0.781,4.219-2.344,5.781c-1.25,1.25-3.125,1.875-5.625,1.875h-12.344V-191.759z M175.869-188.79v8.281h8.438
		c1.04,0,1.926-0.364,2.656-1.094c0.833-0.833,1.25-1.926,1.25-3.281c0-1.145-0.417-2.134-1.25-2.969
		c-0.625-0.625-1.406-0.938-2.344-0.938H175.869z M175.869-177.54v9.531h7.969c1.563,0,2.759-0.415,3.594-1.25
		c0.938-0.938,1.406-2.083,1.406-3.438c0-1.458-0.417-2.603-1.25-3.438c-0.938-0.938-2.188-1.406-3.75-1.406H175.869z"/>
	<path d="M199.462-180.509c1.563-1.563,3.489-2.344,5.781-2.344c2.29,0,4.219,0.781,5.781,2.344c1.77,1.772,2.656,4.011,2.656,6.719
		c0,2.71-0.886,4.949-2.656,6.719c-1.563,1.563-3.491,2.344-5.781,2.344c-2.292,0-4.219-0.781-5.781-2.344
		c-1.772-1.77-2.656-4.009-2.656-6.719C196.806-176.498,197.69-178.736,199.462-180.509z M202.119-178.79
		c-1.25,1.25-1.875,2.917-1.875,5c0,2.085,0.571,3.699,1.719,4.844c0.938,0.938,2.031,1.406,3.281,1.406s2.344-0.469,3.281-1.406
		c1.145-1.145,1.719-2.759,1.719-4.844c0-2.083-0.625-3.75-1.875-5c-0.835-0.833-1.875-1.25-3.125-1.25
		S202.951-179.623,202.119-178.79z"/>
	<path d="M217.744-182.54h3.125v11.719c0,1.25,0.313,2.188,0.938,2.813c0.52,0.522,1.25,0.781,2.188,0.781
		c1.353,0,2.551-0.52,3.594-1.563c1.563-1.563,2.344-3.176,2.344-4.844v-8.906h3.125v17.5h-3.125v-3.125
		c-1.668,2.292-3.699,3.438-6.094,3.438c-2.188,0-3.75-0.469-4.688-1.406s-1.406-2.134-1.406-3.594V-182.54z"/>
	<path d="M240.869-165.04h-3.125v-17.5h3.125v3.125c1.875-2.29,3.853-3.438,5.938-3.438c2.082,0,3.75,0.625,5,1.875
		c0.832,0.835,1.25,1.824,1.25,2.969v12.969h-3.125v-12.031c0-0.938-0.313-1.719-0.938-2.344s-1.512-0.938-2.656-0.938
		c-1.043,0-2.085,0.522-3.125,1.563c-1.563,1.563-2.344,3.23-2.344,5V-165.04z"/>
	<path d="M259.775-180.353c1.563-1.563,3.488-2.344,5.781-2.344c2.5,0,4.375,0.625,5.625,1.875c1.145,1.147,1.821,2.554,2.031,4.219
		h-3.438c-0.105-0.833-0.522-1.614-1.25-2.344c-0.625-0.625-1.563-0.938-2.813-0.938s-2.293,0.417-3.125,1.25
		c-1.25,1.25-1.875,2.969-1.875,5.156c0,2.085,0.571,3.699,1.719,4.844c0.832,0.835,1.875,1.25,3.125,1.25
		c1.457,0,2.603-0.415,3.438-1.25c0.832-0.833,1.25-1.926,1.25-3.281h3.438c-0.105,2.188-0.835,3.96-2.188,5.313
		c-1.355,1.355-3.335,2.031-5.938,2.031c-2.188,0-4.012-0.728-5.469-2.188c-1.875-1.875-2.813-4.165-2.813-6.875
		C257.275-176.446,258.107-178.685,259.775-180.353z"/>
	<path d="M279.931-180.665c1.457-1.458,3.332-2.188,5.625-2.188c2.188,0,4.063,0.781,5.625,2.344
		c1.457,1.46,2.188,3.699,2.188,6.719h-12.656c0,2.188,0.52,3.804,1.563,4.844c0.938,0.938,2.134,1.406,3.594,1.406
		c1.457,0,2.5-0.313,3.125-0.938c0.728-0.728,1.094-1.563,1.094-2.5h3.438c-0.418,1.875-1.094,3.281-2.031,4.219
		c-1.355,1.355-3.23,2.031-5.625,2.031c-2.5,0-4.531-0.781-6.094-2.344c-1.668-1.665-2.5-3.906-2.5-6.719
		S278.159-178.893,279.931-180.665z M282.275-178.946c-0.73,0.73-1.199,1.616-1.406,2.656h8.906c0-1.04-0.418-1.978-1.25-2.813
		c-0.73-0.728-1.772-1.094-3.125-1.094C284.15-180.196,283.107-179.779,282.275-178.946z"/>
</g>
<g>
	<g>
		<path fill="#FFFFFF" d="M92.171,31.347c-1.863,0.892-4.301,1.428-6.768,1.612c-6.504,0.485-10.507-3.039-11.054-9.433
			c-0.502-5.842,2.592-11.274,8.915-11.749c5.042-0.378,8.829,2.665,9.282,9.61c0.066,0.981,0.099,2.002-0.003,2.703
			c-3.935,0.262-7.87,0.546-11.8,0.853c0.34,2.425,2.645,3.375,5.343,3.178c1.885-0.137,3.49-0.579,4.938-1.154
			C91.407,28.427,91.791,29.887,92.171,31.347z M86.435,20.093c-0.132-1.816-0.895-4.065-3.177-3.895
			c-2.246,0.169-2.92,2.636-2.896,4.352C82.384,20.392,84.409,20.24,86.435,20.093z"/>
		<path fill="#FFFFFF" d="M113.967,10.343c-1.324,4.923-2.627,9.851-3.907,14.778c-1.841,6.401-3.38,9.948-5.49,12.329
			c-1.977,2.117-4.225,3.052-5.565,3.354c-0.634-1.786-1.271-3.572-1.911-5.356c2.643-0.716,5.063-3.519,4.996-4.72
			c-0.013-0.221-0.103-0.505-0.311-0.895c-2.625-6.14-5.292-12.268-8.003-18.387c2.418-0.156,4.836-0.303,7.255-0.442
			c1.019,3.298,2.031,6.6,3.034,9.903c0.363,1.148,0.729,2.441,0.975,3.523c0.038-0.002,0.075-0.003,0.112-0.005
			c0.163-1.104,0.315-2.426,0.479-3.567c0.491-3.396,0.988-6.791,1.492-10.186C109.405,10.555,111.686,10.444,113.967,10.343z"/>
		<path fill="#FFFFFF" d="M135.917,19.729c0.178,7.977-4.953,10.906-9.48,11.061c-5.741,0.191-9.85-3.562-10.143-10.153
			c-0.306-6.879,3.817-10.969,9.66-11.163C132.024,9.275,135.78,13.574,135.917,19.729z M125.959,14.142
			c-2.477,0.083-3.146,3.247-3.042,6.084c0.126,3.425,1.22,5.973,3.441,5.9c2.108-0.071,3.025-2.831,2.927-6.111
			C129.196,16.992,128.209,14.069,125.959,14.142z"/>
		<path fill="#FFFFFF" d="M157.37,29.833c-2.164,0.005-4.328,0.018-6.492,0.038c-0.036-3.974-0.072-7.946-0.107-11.92
			c-0.019-2.146-0.707-3.708-2.581-3.687c-1.386,0.016-2.834,1.02-2.795,3.643c0.058,4.01,0.114,8.018,0.172,12.026
			c-2.164,0.031-4.328,0.069-6.493,0.113c-0.096-4.651-0.191-9.302-0.29-13.955c-0.049-2.44-0.17-4.625-0.285-6.555
			c1.895-0.039,3.79-0.073,5.683-0.102c0.126,0.86,0.253,1.721,0.379,2.582c0.037-0.001,0.074-0.001,0.111-0.002
			c0.917-1.4,2.893-3.032,5.829-3.059c4.449-0.041,6.826,3.059,6.836,8.377C157.348,21.5,157.358,25.667,157.37,29.833z"/>
		<path fill="#FFFFFF" d="M179.513,23.749c-0.043,2.259-0.014,4.631,0.027,6.271c-1.894-0.038-3.788-0.068-5.681-0.095
			c-0.085-0.888-0.171-1.775-0.257-2.664c-0.037,0-0.076-0.001-0.112-0.001c-1.136,1.917-3.288,3.02-5.498,3.002
			c-4.75-0.037-7.847-4.548-7.854-10.601c-0.008-6.959,3.912-10.752,8.326-10.715c2.259,0.019,3.868,0.915,4.563,2.161
			c0.039,0,0.078,0.001,0.117,0.001c0.046-3.521,0.09-7.044,0.136-10.565c2.227,0.029,4.453,0.064,6.679,0.107
			C179.81,8.35,179.662,16.048,179.513,23.749z M173.057,17.777c0.038-2.841-1.676-3.702-2.802-3.713
			c-2.399-0.024-3.501,2.524-3.521,5.62c-0.022,3.535,1.375,5.403,3.374,5.422c1.223,0.012,2.865-0.732,2.903-3.539
			C173.025,20.303,173.042,19.041,173.057,17.777z"/>
		<g>
			<path fill="#FFFFFF" d="M56.994,35.837c-0.933,0.096-1.865,0.193-2.797,0.292c-1.037-9.817-2.074-19.635-3.11-29.452
				c0.959-0.101,1.919-0.201,2.879-0.301C54.975,16.197,55.984,26.017,56.994,35.837z"/>
			<path fill="#FFFFFF" d="M52.333,36.328c-0.622,0.067-1.243,0.134-1.864,0.202c-1.074-9.813-2.148-19.626-3.221-29.439
				c0.64-0.071,1.279-0.14,1.919-0.209C50.222,16.697,51.277,26.513,52.333,36.328z"/>
			<path fill="#FFFFFF" d="M49.537,36.633c-0.311,0.034-0.621,0.069-0.932,0.104c-1.092-9.812-2.184-19.624-3.276-29.435
				c0.32-0.035,0.639-0.07,0.959-0.106C47.371,17.008,48.454,26.82,49.537,36.633z"/>
			<path fill="#FFFFFF" d="M65.781,18.904c-0.003-0.037-0.006-0.073-0.01-0.109c2.727-1.513,4.21-4.046,3.994-6.509
				c-0.209-2.386-1.465-4.237-3.46-5.242c-2.274-1.165-5.205-1.262-8.682-0.916c-0.256,0.025-0.765,0.078-0.765,0.08
				c0.164,1.639,0.327,3.274,0.491,4.912c-0.011-0.109,0.977-0.282,1.992-0.383c2.223-0.217,3.904,0.792,4.119,3.071
				c0.191,2.054-1.31,3.843-4.074,4.115c-0.447,0.045-0.896,0.09-1.343,0.133c0.153,1.536,0.307,3.071,0.46,4.606
				c0.495-0.05,0.99-0.099,1.484-0.147c2.385-0.236,5.001,0.38,5.268,3.245c0.255,2.756-1.805,4.071-4.278,4.314
				c-0.775,0.077-1.722,0.091-1.734-0.02c0.171,1.711,0.342,3.422,0.512,5.134c5.593-0.614,8.291-1.928,10.043-3.781
				c1.561-1.657,2.28-3.913,2.085-6.153C71.594,21.947,69.657,19.434,65.781,18.904z"/>
			<path fill="#FFFFFF" d="M59.555,35.212c0.112-0.011,0.223-0.023,0.335-0.033c0-0.001,0-0.003,0-0.005
				c-0.145,0.015-0.285,0.032-0.432,0.046C59.522,35.214,59.553,35.212,59.555,35.212z"/>
		</g>
		<g>
			<path fill="#FFFFFF" d="M199.182,30.394c-0.937-0.037-1.873-0.071-2.81-0.105c0.356-9.866,0.711-19.731,1.068-29.596
				c0.964,0.035,1.928,0.07,2.892,0.107C199.949,10.666,199.565,20.531,199.182,30.394z"/>
			<path fill="#FFFFFF" d="M194.5,30.223c-0.625-0.021-1.249-0.041-1.874-0.062c0.32-9.868,0.64-19.734,0.959-29.601
				c0.642,0.021,1.285,0.042,1.927,0.064C195.175,10.491,194.837,20.357,194.5,30.223z"/>
			<path fill="#FFFFFF" d="M191.689,30.131c-0.312-0.01-0.624-0.02-0.937-0.029c0.301-9.868,0.603-19.734,0.903-29.602
				c0.321,0.01,0.643,0.02,0.965,0.031C192.31,10.396,192,20.264,191.689,30.131z"/>
			<path fill="#FFFFFF" d="M210.261,14.992c0.002-0.036,0.004-0.073,0.006-0.108c2.913-1.114,4.738-3.413,4.871-5.88
				c0.13-2.393-0.853-4.404-2.687-5.679c-2.089-1.474-4.976-1.981-8.466-2.13c-0.256-0.012-0.769-0.031-0.769-0.026
				c-0.069,1.642-0.137,3.287-0.206,4.93c0.004-0.11,1.007-0.143,2.025-0.098c2.232,0.098,3.757,1.272,3.647,3.556
				c-0.099,2.063-1.835,3.559-4.61,3.439c-0.45-0.02-0.899-0.039-1.348-0.057c-0.065,1.541-0.128,3.082-0.193,4.624
				c0.497,0.02,0.994,0.041,1.49,0.062c2.393,0.104,4.894,1.144,4.754,4.017c-0.134,2.766-2.363,3.809-4.845,3.703
				c-0.777-0.035-1.719-0.124-1.714-0.234c-0.071,1.718-0.143,3.436-0.214,5.154c5.621,0.182,8.477-0.741,10.473-2.328
				c1.779-1.42,2.809-3.553,2.932-5.797C215.589,18.824,214.023,16.063,210.261,14.992z"/>
			<path fill="#FFFFFF" d="M201.801,30.261c0.111,0.004,0.224,0.01,0.336,0.014c0-0.001,0-0.003,0-0.005
				c-0.145-0.006-0.286-0.007-0.433-0.013C201.767,30.259,201.798,30.261,201.801,30.261z"/>
		</g>
		<path fill="#FFFFFF" d="M237.812,21.947c-0.621,7.955-6.021,10.357-10.545,10.059c-5.737-0.384-9.454-4.527-9.086-11.117
			c0.383-6.876,4.896-10.531,10.735-10.141C234.98,11.159,238.291,15.811,237.812,21.947z M228.454,15.393
			c-2.474-0.165-3.458,2.917-3.638,5.754c-0.216,3.419,0.617,6.063,2.836,6.211c2.106,0.141,3.296-2.514,3.527-5.787
			C231.393,18.554,230.701,15.543,228.454,15.393z"/>
		<path fill="#FFFFFF" d="M258.563,27.559c-0.246,2.502-0.353,4.764-0.458,6.584c-1.863-0.182-3.727-0.359-5.591-0.529
			c-0.02-0.857-0.041-1.712-0.062-2.569c-0.037-0.003-0.074-0.006-0.109-0.01c-1.006,1.224-3.029,2.685-6.044,2.425
			c-4.19-0.359-6.323-3.337-5.86-9.223c0.322-4.057,0.645-8.113,0.966-12.17c2.205,0.175,4.408,0.357,6.611,0.546
			c-0.322,3.752-0.644,7.504-0.966,11.256c-0.237,2.76,0.402,4.424,2.212,4.583c1.332,0.117,2.716-0.78,2.906-2.849
			c0.379-4.174,0.76-8.347,1.14-12.522c2.202,0.202,4.405,0.409,6.606,0.623C259.464,18.323,259.014,22.94,258.563,27.559z"/>
		<path fill="#FFFFFF" d="M279.233,36.433c-2.154-0.256-4.307-0.505-6.461-0.747c0.444-3.948,0.888-7.896,1.332-11.844
			c0.242-2.136-0.253-3.771-2.12-3.976c-1.381-0.152-2.942,0.67-3.221,3.28c-0.427,3.986-0.854,7.973-1.281,11.958
			c-2.157-0.231-4.314-0.455-6.471-0.673c0.465-4.628,0.932-9.257,1.397-13.888c0.246-2.429,0.391-4.613,0.508-6.542
			c1.889,0.19,3.777,0.386,5.664,0.586c0.021,0.87,0.043,1.738,0.064,2.608c0.038,0.004,0.075,0.008,0.112,0.012
			c1.081-1.276,3.243-2.659,6.168-2.33c4.428,0.499,6.422,3.862,5.787,9.144C280.218,28.159,279.726,32.296,279.233,36.433z"/>
		<path fill="#FFFFFF" d="M296.856,38.286c-0.932,0.276-2.813,0.387-4.829,0.121c-6.147-0.811-9.612-5.076-8.825-11.59
			c0.736-6.147,5.421-10.294,12.508-9.354c1.646,0.22,3.176,0.756,4.063,1.21c-0.532,1.558-1.061,3.116-1.588,4.675
			c-0.64-0.309-1.496-0.682-2.8-0.855c-2.984-0.398-5.175,1.603-5.554,4.897c-0.455,3.542,1.351,5.793,4.111,6.162
			c1.143,0.152,2.126,0.1,2.98-0.112C296.901,35.055,296.88,36.67,296.856,38.286z"/>
		<path fill="#FFFFFF" d="M316.838,40.856c-2.023,0.457-4.524,0.437-6.979,0.07c-6.463-0.97-9.593-5.292-8.713-11.649
			c0.808-5.809,5.033-10.421,11.318-9.482c5.014,0.751,8.047,4.562,6.953,11.434c-0.157,0.971-0.353,1.973-0.606,2.633
			c-3.909-0.618-7.817-1.213-11.732-1.786c-0.199,2.439,1.839,3.879,4.522,4.285c1.875,0.284,3.54,0.209,5.083-0.027
			C316.737,37.84,316.791,39.349,316.838,40.856z M313.724,28.61c0.273-1.801,0.025-4.167-2.245-4.505
			c-2.236-0.333-3.441,1.924-3.797,3.603C309.698,28.003,311.709,28.304,313.724,28.61z"/>
	</g>
	<path fill="#FFFFFF" d="M38.901,27.825c-0.088-0.225-0.192-0.446-0.3-0.668c-0.25-0.498-0.403-0.782-0.815-1.165
		c-0.384-0.356-0.793-0.615-1.191-0.834c-0.913-0.509-1.794-0.811-2.64-0.976c-0.205-0.041-0.411-0.072-0.615-0.098
		c-0.32-0.041-0.639-0.071-0.957-0.101c-0.597-0.054-1.188-0.102-1.778-0.138c-1.309-0.075-2.596-0.095-3.85-0.031
		c-2.852,0.15-5.499,0.756-7.864,1.831c-0.134,0.059-0.872,0.412-1.614,0.789c0.002-0.058,0.015-0.116,0.015-0.171
		c0.012-1.09-0.137-2.263-0.455-3.307c-0.016-0.054-0.04-0.099-0.059-0.152c5.123-0.946,8.537-4.085,11.616-7.869
		c0.394-0.483-0.237-0.958-0.756-0.677c-1.592,0.867-3.874,0.071-5.556-0.01c-1.692-0.085-3.617,0.621-4.93,1.595
		c-0.332,0.242-3.309,3.311-3.004,3.497c-0.938-0.573-2.032-0.857-3.182-0.908c0.042-0.084,0.085-0.166,0.127-0.248
		c1.46-0.556,2.35-1.74,2.954-3.005c0.317-0.664,0.53-1.354,0.708-2.053c0.161-0.631,0.15-1.281,0.411-1.896
		c0.199-0.467,0.256-1.008-0.46-0.987c-0.488,0.014-1.183,0.83-1.602,1.081c-0.691,0.41-1.425,0.76-2.159,1.101
		c-1.435,0.67-2.919,1.299-4.175,2.234c-2.181,1.624-2.223,3.477-0.78,5.047c-0.06-0.065-0.796,0.484-0.874,0.537
		c-0.16,0.112-0.333,0.221-0.482,0.345c-0.153,0.127-0.254,0.368-0.374,0.463c-1.031,0.835-1.078,2.025-1.636,3.074
		c-0.19,0.357-0.376,0.714-0.562,1.073c-0.593,1.15-1.396,2.047-1.619,3.331c-0.225,1.281,0.012,2.629,0.682,3.75
		c1.252,2.091,4.292,2.8,6.745,2.662c0.324-0.019,0.657-0.051,0.99-0.098c-0.221,0.409-0.445,0.814-0.649,1.248
		c-0.521,1.11-0.977,2.282-1.384,3.496c-0.185,0.546-0.355,1.101-0.526,1.661c-0.086,0.301-0.177,0.597-0.257,0.906
		c-0.05,0.192-0.096,0.39-0.133,0.592c-0.156,0.828-0.2,1.738-0.063,2.754c0.061,0.444,0.149,0.911,0.341,1.397
		c0.205,0.515,0.411,0.763,0.785,1.181c0.164,0.181,0.331,0.362,0.504,0.525c0.331,0.307,0.671,0.559,1.01,0.701
		c1.239,0.526,2.061-0.086,2.593-0.855c0.546-0.792,0.837-1.814,1.174-2.816c0.833-2.463,1.669-4.873,2.938-6.921
		c1.276-2.067,3.055-3.639,4.813-4.889c1.975-1.2,4.077-2.217,6.525-2.612c2.414-0.39,5.052-0.269,7.693-0.101
		c1.073,0.067,2.17,0.18,3.127-0.023c0.93-0.197,1.835-0.725,1.817-2.066C39.163,28.652,39.064,28.242,38.901,27.825z"/>
</g>
<g>
	<g>
		<g>
			<path d="M124.889-60.435c-2.014,0.964-4.649,1.543-7.314,1.741c-7.027,0.524-11.352-3.283-11.944-10.191
				c-0.543-6.313,2.801-12.183,9.632-12.696c5.448-0.407,9.541,2.88,10.03,10.385c0.07,1.06,0.107,2.165-0.003,2.92
				c-4.251,0.283-8.502,0.591-12.75,0.923c0.369,2.618,2.858,3.646,5.773,3.433c2.037-0.149,3.771-0.625,5.335-1.247
				C124.063-63.59,124.476-62.013,124.889-60.435z M118.688-72.594c-0.142-1.962-0.966-4.393-3.433-4.208
				c-2.426,0.183-3.154,2.848-3.129,4.703C114.313-72.271,116.5-72.436,118.688-72.594z"/>
			<path d="M148.438-83.13c-1.431,5.32-2.838,10.643-4.222,15.968c-1.987,6.917-3.651,10.75-5.932,13.321
				c-2.135,2.288-4.565,3.299-6.012,3.625c-0.686-1.93-1.374-3.86-2.066-5.789c2.855-0.773,5.47-3.801,5.397-5.099
				c-0.014-0.239-0.111-0.546-0.335-0.967c-2.837-6.633-5.719-13.256-8.647-19.867c2.612-0.168,5.225-0.328,7.838-0.478
				c1.102,3.565,2.195,7.132,3.279,10.701c0.392,1.24,0.788,2.639,1.053,3.807c0.041-0.002,0.081-0.004,0.122-0.007
				c0.176-1.192,0.341-2.621,0.517-3.853c0.53-3.669,1.068-7.338,1.612-11.007C143.508-82.901,145.973-83.02,148.438-83.13z"/>
			<path d="M172.154-72.989c0.191,8.62-5.351,11.784-10.243,11.951c-6.202,0.208-10.644-3.849-10.96-10.97
				c-0.33-7.434,4.125-11.852,10.438-12.062C167.949-84.284,172.006-79.639,172.154-72.989z M161.395-79.024
				c-2.675,0.09-3.4,3.507-3.287,6.575c0.136,3.701,1.319,6.454,3.718,6.373c2.278-0.075,3.269-3.058,3.164-6.602
				C164.892-75.945,163.826-79.104,161.395-79.024z"/>
			<path d="M195.334-62.07c-2.338,0.006-4.676,0.02-7.014,0.041c-0.039-4.293-0.078-8.586-0.116-12.879
				c-0.021-2.319-0.763-4.007-2.788-3.984c-1.499,0.017-3.063,1.103-3.021,3.937c0.062,4.332,0.124,8.663,0.186,12.994
				c-2.338,0.033-4.677,0.074-7.015,0.123c-0.104-5.026-0.208-10.053-0.313-15.079c-0.054-2.637-0.185-4.998-0.309-7.083
				c2.046-0.042,4.093-0.08,6.14-0.111c0.137,0.93,0.273,1.86,0.41,2.79c0.04,0,0.08-0.001,0.12-0.002
				c0.991-1.512,3.125-3.275,6.298-3.305c4.807-0.043,7.376,3.306,7.387,9.053C195.311-71.075,195.322-66.572,195.334-62.07z"/>
			<path d="M219.26-68.645c-0.047,2.442-0.015,5.003,0.029,6.776c-2.045-0.04-4.091-0.074-6.137-0.102
				c-0.093-0.959-0.186-1.919-0.278-2.878c-0.041,0-0.081-0.001-0.122-0.001c-1.227,2.071-3.552,3.263-5.941,3.244
				c-5.131-0.04-8.479-4.915-8.486-11.454c-0.009-7.521,4.226-11.619,8.996-11.579c2.44,0.021,4.18,0.988,4.931,2.334
				c0.042,0,0.084,0.001,0.125,0.002c0.049-3.806,0.098-7.611,0.146-11.417c2.406,0.031,4.812,0.07,7.217,0.116
				C219.581-85.284,219.42-76.965,219.26-68.645z M212.285-75.097c0.041-3.07-1.811-4-3.027-4.012
				c-2.592-0.025-3.785,2.727-3.805,6.073c-0.024,3.819,1.485,5.838,3.646,5.859c1.321,0.013,3.095-0.792,3.135-3.825
				C212.25-72.367,212.268-73.732,212.285-75.097z"/>
			<g>
				<path d="M86.878-55.583c-1.008,0.104-2.015,0.208-3.022,0.315c-1.12-10.607-2.241-21.215-3.361-31.823
					c1.037-0.11,2.074-0.218,3.111-0.324C84.696-76.804,85.787-66.193,86.878-55.583z"/>
				<path d="M81.841-55.053c-0.671,0.072-1.343,0.145-2.014,0.218c-1.16-10.604-2.32-21.207-3.48-31.81
					c0.691-0.076,1.382-0.151,2.074-0.225C79.561-76.264,80.701-65.658,81.841-55.053z"/>
				<path d="M78.82-54.724c-0.335,0.037-0.671,0.074-1.007,0.111c-1.179-10.601-2.359-21.202-3.539-31.804
					c0.345-0.039,0.691-0.077,1.037-0.115C76.48-75.928,77.65-65.326,78.82-54.724z"/>
				<path d="M96.373-73.88c-0.003-0.04-0.007-0.079-0.011-0.118c2.947-1.634,4.549-4.372,4.316-7.031
					c-0.227-2.579-1.583-4.581-3.739-5.666c-2.458-1.258-5.624-1.363-9.382-0.99c-0.276,0.028-0.827,0.085-0.827,0.089
					c0.177,1.769,0.354,3.537,0.53,5.306c-0.012-0.119,1.056-0.306,2.152-0.413c2.402-0.235,4.219,0.855,4.45,3.316
					c0.208,2.221-1.415,4.154-4.401,4.448c-0.484,0.048-0.967,0.096-1.451,0.145c0.166,1.658,0.332,3.316,0.497,4.975
					c0.535-0.054,1.069-0.106,1.603-0.159c2.577-0.254,5.404,0.411,5.691,3.506c0.277,2.978-1.95,4.4-4.623,4.663
					c-0.837,0.082-1.861,0.097-1.873-0.021c0.185,1.849,0.37,3.697,0.555,5.546c6.042-0.662,8.957-2.083,10.85-4.085
					c1.687-1.79,2.464-4.228,2.253-6.648C102.655-70.591,100.561-73.307,96.373-73.88z"/>
				<path d="M89.646-56.259c0.121-0.012,0.242-0.024,0.362-0.036c0-0.002,0-0.004,0-0.005c-0.155,0.017-0.307,0.036-0.466,0.052
					C89.609-56.255,89.643-56.259,89.646-56.259z"/>
			</g>
			<g>
				<path d="M240.513-61.464c-1.012-0.04-2.024-0.078-3.036-0.114c0.385-10.66,0.77-21.319,1.155-31.979
					c1.042,0.038,2.083,0.077,3.125,0.117C241.342-82.781,240.927-72.123,240.513-61.464z"/>
				<path d="M235.453-61.649c-0.675-0.023-1.35-0.046-2.024-0.068c0.346-10.661,0.691-21.322,1.036-31.983
					c0.694,0.022,1.389,0.045,2.083,0.069C236.183-82.97,235.818-72.31,235.453-61.649z"/>
				<path d="M232.417-61.749c-0.337-0.01-0.675-0.021-1.012-0.031c0.325-10.662,0.651-21.323,0.976-31.985
					c0.348,0.011,0.695,0.021,1.042,0.032C233.087-83.072,232.752-72.41,232.417-61.749z"/>
				<path d="M252.483-78.106c0.002-0.04,0.004-0.079,0.006-0.119c3.147-1.202,5.12-3.687,5.264-6.353
					c0.139-2.585-0.922-4.758-2.904-6.135c-2.257-1.592-5.376-2.142-9.148-2.302c-0.277-0.012-0.831-0.033-0.831-0.028
					c-0.074,1.776-0.148,3.552-0.222,5.328c0.004-0.119,1.088-0.154,2.188-0.106c2.411,0.105,4.059,1.374,3.941,3.842
					c-0.107,2.229-1.983,3.845-4.98,3.716c-0.486-0.021-0.972-0.042-1.458-0.062c-0.069,1.665-0.139,3.33-0.208,4.996
					c0.536,0.022,1.073,0.045,1.609,0.068c2.586,0.111,5.289,1.235,5.138,4.34c-0.146,2.987-2.553,4.115-5.235,3.999
					c-0.84-0.037-1.857-0.132-1.853-0.251c-0.077,1.856-0.155,3.712-0.232,5.569c6.073,0.196,9.16-0.801,11.316-2.516
					c1.922-1.535,3.036-3.839,3.168-6.264C258.241-73.965,256.548-76.949,252.483-78.106z"/>
				<path d="M243.342-61.608c0.121,0.005,0.243,0.01,0.364,0.015c0-0.002,0-0.003,0-0.005c-0.156-0.005-0.308-0.007-0.468-0.014
					C243.306-61.61,243.339-61.608,243.342-61.608z"/>
			</g>
			<path d="M282.253-70.591c-0.671,8.595-6.507,11.19-11.395,10.868c-6.199-0.414-10.215-4.891-9.818-12.011
				c0.414-7.429,5.291-11.38,11.6-10.957C279.192-82.249,282.771-77.222,282.253-70.591z M272.142-77.673
				c-2.673-0.178-3.737,3.15-3.931,6.216c-0.234,3.694,0.668,6.551,3.065,6.711c2.275,0.153,3.563-2.716,3.811-6.251
				C275.317-74.257,274.569-77.51,272.142-77.673z"/>
			<path d="M304.675-64.528c-0.264,2.704-0.383,5.147-0.495,7.114c-2.013-0.197-4.026-0.388-6.041-0.573
				c-0.022-0.925-0.044-1.85-0.067-2.775c-0.04-0.003-0.079-0.007-0.119-0.011c-1.085,1.323-3.273,2.901-6.531,2.621
				c-4.527-0.388-6.831-3.606-6.332-9.966c0.348-4.383,0.696-8.767,1.044-13.15c2.381,0.189,4.762,0.386,7.143,0.59
				c-0.348,4.054-0.696,8.108-1.044,12.162c-0.255,2.982,0.436,4.779,2.392,4.952c1.438,0.127,2.935-0.842,3.139-3.078
				c0.411-4.51,0.821-9.02,1.232-13.53c2.38,0.217,4.76,0.441,7.139,0.673C305.648-74.508,305.162-69.518,304.675-64.528z"/>
			<path d="M327.008-54.938c-2.327-0.277-4.654-0.547-6.982-0.809c0.48-4.266,0.96-8.531,1.44-12.797
				c0.26-2.309-0.274-4.074-2.292-4.297c-1.493-0.165-3.178,0.725-3.479,3.544c-0.461,4.307-0.923,8.614-1.385,12.921
				c-2.33-0.25-4.66-0.492-6.991-0.727c0.503-5.002,1.007-10.004,1.511-15.006c0.265-2.625,0.421-4.985,0.548-7.069
				c2.041,0.205,4.081,0.416,6.12,0.632c0.023,0.939,0.047,1.879,0.07,2.818c0.04,0.004,0.08,0.008,0.12,0.013
				c1.168-1.378,3.503-2.873,6.666-2.518c4.783,0.539,6.937,4.173,6.252,9.88C328.073-63.881,327.541-59.41,327.008-54.938z"/>
			<path d="M346.05-52.938c-1.007,0.299-3.039,0.419-5.218,0.131c-6.641-0.876-10.384-5.484-9.537-12.523
				c0.799-6.643,5.859-11.123,13.515-10.108c1.781,0.237,3.43,0.817,4.391,1.308c-0.574,1.684-1.146,3.367-1.716,5.052
				c-0.693-0.333-1.619-0.737-3.026-0.925c-3.223-0.43-5.59,1.732-6.002,5.292c-0.489,3.827,1.461,6.26,4.446,6.658
				c1.233,0.165,2.294,0.109,3.219-0.122C346.098-56.429,346.075-54.684,346.05-52.938z"/>
			<path d="M367.642-50.161c-2.187,0.494-4.89,0.473-7.542,0.075c-6.984-1.047-10.365-5.718-9.414-12.586
				c0.869-6.277,5.438-11.26,12.227-10.246c5.418,0.812,8.695,4.928,7.511,12.354c-0.166,1.049-0.378,2.132-0.653,2.846
				c-4.223-0.668-8.448-1.311-12.676-1.929c-0.217,2.634,1.987,4.19,4.886,4.629c2.025,0.307,3.827,0.226,5.493-0.03
				C367.532-53.419,367.587-51.79,367.642-50.161z M364.274-63.392c0.297-1.946,0.028-4.5-2.426-4.868
				c-2.412-0.36-3.716,2.08-4.1,3.894C359.924-64.048,362.1-63.724,364.274-63.392z"/>
		</g>
		<path d="M67.329-64.241c-0.094-0.242-0.207-0.482-0.324-0.722c-0.27-0.538-0.436-0.845-0.88-1.258
			c-0.415-0.386-0.856-0.664-1.287-0.903c-0.986-0.549-1.938-0.875-2.853-1.053c-0.222-0.044-0.444-0.079-0.664-0.106
			c-0.347-0.044-0.691-0.076-1.035-0.108c-0.644-0.06-1.284-0.111-1.92-0.149c-1.415-0.083-2.806-0.103-4.16-0.033
			c-3.082,0.163-5.942,0.814-8.499,1.977c-0.144,0.064-0.941,0.446-1.744,0.852c0.003-0.061,0.017-0.123,0.016-0.184
			c0.014-1.178-0.148-2.445-0.492-3.573c-0.018-0.058-0.043-0.108-0.063-0.164c5.535-1.021,9.225-4.415,12.55-8.501
			c0.426-0.522-0.256-1.037-0.816-0.732c-1.721,0.938-4.186,0.077-6.004-0.011c-1.827-0.092-3.907,0.67-5.327,1.722
			c-0.358,0.262-3.574,3.579-3.245,3.78c-1.014-0.621-2.196-0.928-3.438-0.982c0.043-0.091,0.09-0.18,0.136-0.269
			c1.578-0.599,2.539-1.88,3.192-3.247c0.342-0.716,0.574-1.463,0.765-2.218c0.173-0.683,0.162-1.384,0.444-2.048
			c0.214-0.504,0.277-1.09-0.497-1.068c-0.527,0.016-1.277,0.898-1.731,1.167c-0.747,0.443-1.54,0.821-2.333,1.19
			c-1.551,0.724-3.154,1.404-4.512,2.415c-2.356,1.754-2.402,3.756-0.842,5.453c-0.065-0.07-0.862,0.522-0.945,0.581
			c-0.172,0.121-0.36,0.238-0.521,0.373c-0.165,0.138-0.275,0.397-0.404,0.5c-1.114,0.903-1.165,2.188-1.768,3.323
			c-0.205,0.385-0.407,0.771-0.606,1.157c-0.641,1.244-1.508,2.213-1.75,3.6c-0.242,1.384,0.013,2.841,0.736,4.052
			c1.354,2.258,4.639,3.025,7.288,2.876c0.351-0.021,0.711-0.055,1.069-0.107c-0.239,0.443-0.481,0.881-0.702,1.349
			c-0.563,1.199-1.056,2.466-1.496,3.778c-0.199,0.59-0.383,1.19-0.567,1.794c-0.094,0.325-0.192,0.646-0.279,0.979
			c-0.053,0.208-0.104,0.422-0.144,0.64c-0.168,0.895-0.216,1.878-0.067,2.977c0.065,0.48,0.161,0.985,0.367,1.51
			c0.221,0.556,0.445,0.825,0.849,1.275c0.177,0.196,0.357,0.392,0.545,0.568c0.357,0.332,0.725,0.603,1.091,0.757
			c1.34,0.568,2.226-0.092,2.801-0.923c0.591-0.855,0.904-1.961,1.27-3.044c0.899-2.661,1.804-5.266,3.174-7.479
			c1.38-2.234,3.3-3.931,5.2-5.282c2.134-1.297,4.406-2.396,7.05-2.823c2.608-0.421,5.459-0.291,8.313-0.11
			c1.16,0.074,2.346,0.195,3.379-0.025c1.004-0.212,1.982-0.782,1.963-2.232C67.612-63.347,67.505-63.79,67.329-64.241z"/>
	</g>
</g>
<path d="M8.116-60.313c-1.305,0.526-2.97-0.345-4.245-0.59c-1.283-0.248-2.824,0.102-3.932,0.728
	c-0.277,0.157-2.885,2.256-2.674,2.437c-0.655-0.562-1.459-0.913-2.331-1.085c0.04-0.063,0.082-0.123,0.123-0.183
	c1.177-0.27,1.987-1.109,2.585-2.043c0.313-0.49,0.551-1.013,0.761-1.547c0.19-0.483,0.252-1,0.517-1.458
	c0.201-0.348,0.303-0.771-0.244-0.835c-0.372-0.043-0.986,0.525-1.333,0.676c-0.57,0.247-1.165,0.44-1.76,0.626
	c-1.165,0.366-2.362,0.69-3.424,1.282c-1.842,1.026-2.094,2.487-1.172,3.904c-0.039-0.058-0.665,0.287-0.73,0.32
	c-0.135,0.069-0.28,0.135-0.408,0.215c-0.131,0.083-0.238,0.26-0.34,0.321c-0.886,0.536-1.062,1.472-1.615,2.234
	c-0.188,0.259-0.373,0.518-0.557,0.778c-0.593,0.838-1.317,1.448-1.645,2.435c-0.327,0.985-0.312,2.081,0.069,3.051
	c0.71,1.811,2.979,2.75,4.896,2.933c0.519,0.05,1.076,0.062,1.594,0c1.659-0.198,3.459-0.614,4.67-1.76
	c1.118-1.058,1.789-2.567,2.003-4.022c0.127-0.863,0.14-1.81,0.008-2.673c-0.007-0.044-0.02-0.083-0.028-0.127
	c4.041-0.178,6.995-2.313,9.722-5.001C8.976-60.042,8.54-60.484,8.116-60.313z"/>
<path d="M14.8-49.981c-0.264-0.32-0.556-0.564-0.844-0.779c-0.659-0.492-1.312-0.818-1.95-1.033
	c-0.155-0.053-0.311-0.099-0.466-0.139c-0.245-0.064-0.488-0.119-0.73-0.174c-0.456-0.104-0.909-0.202-1.359-0.29
	c-1.004-0.193-1.996-0.341-2.968-0.42c-2.215-0.178-4.317,0.016-6.257,0.606c-0.236,0.072-2.774,0.904-2.717,1.034
	c0.055,0.13,0.111,0.258,0.166,0.387c-0.066-0.123-0.134-0.246-0.202-0.369c-0.068-0.125-2.223,1.327-2.425,1.47
	c-1.656,1.167-3.04,2.666-4.259,4.524c-0.534,0.816-1.028,1.689-1.49,2.601c-0.208,0.41-0.409,0.829-0.607,1.25
	c-0.104,0.228-0.211,0.451-0.311,0.685c-0.062,0.146-0.121,0.297-0.175,0.453c-0.222,0.636-0.366,1.351-0.383,2.173
	c-0.007,0.358,0.005,0.739,0.096,1.146c0.098,0.433,0.23,0.655,0.472,1.03c0.107,0.164,0.216,0.328,0.333,0.479
	c0.222,0.283,0.459,0.522,0.708,0.677c0.911,0.566,1.63,0.181,2.139-0.365c0.523-0.562,0.872-1.338,1.253-2.092
	c0.94-1.853,1.872-3.665,3.092-5.143c1.229-1.491,2.786-2.535,4.288-3.332c1.665-0.734,3.405-1.313,5.346-1.369
	c1.916-0.056,3.954,0.311,5.994,0.706c0.83,0.16,1.673,0.358,2.438,0.289c0.743-0.067,1.498-0.399,1.609-1.468
	c0.031-0.292-0.008-0.627-0.095-0.976c-0.047-0.186-0.107-0.373-0.171-0.56C15.176-49.396,15.084-49.638,14.8-49.981z"/>
<g>
</g>
<g>
</g>
<g>
</g>
<g>
</g>
<g>
</g>
<g>
</g>
<g>
</g>
<g>
</g>
<g>
</g>
<g>
</g>
<g>
</g>
<g>
</g>
<g>
</g>
<g>
</g>
<g>
</g>
</svg>
