<?xml version="1.0" encoding="UTF-8"?>
<svg id="_レイヤー_1" data-name="レイヤー_1" xmlns="http://www.w3.org/2000/svg" version="1.1" viewBox="0 0 600 70">
  <!-- Generator: Adobe Illustrator 30.2.1, SVG Export Plug-In . SVG Version: 2.1.1 Build 1)  -->
  <defs>
    <style>
      .st0 {
        fill: #fff;
      }
    </style>
  </defs>
  <g>
    <path class="st0" d="M0,70L15.57,28.47h34.48c3.21,0,5.29.64,6.23,1.91.94,1.27.88,3.32-.18,6.15l-3.48,9.27c-1.05,2.8-2.52,4.84-4.42,6.11-1.89,1.27-4.44,1.91-7.65,1.91h-6.27l13.48,16.19h-10.6l-11.33-16.19h-12.59l-6.07,16.19H0ZM45.24,33.85h-24.52l-5.46,14.58h24.52c1.78,0,3.11-.31,4-.94s1.62-1.73,2.21-3.3l2.27-6.05c.59-1.57.67-2.68.25-3.32-.42-.64-1.51-.96-3.26-.96Z"/>
    <path class="st0" d="M73.23,43.99c1.17-3.12,2.57-5.24,4.21-6.38s4.12-1.71,7.44-1.71h25.37c3.32,0,5.37.57,6.16,1.71s.6,3.27-.57,6.38l-6.73,17.95c-1.17,3.12-2.56,5.24-4.19,6.36-1.62,1.13-4.11,1.69-7.45,1.69h-25.37c-3.37,0-5.44-.56-6.21-1.67-.77-1.11-.57-3.24.61-6.38l6.73-17.95ZM72.04,64.85h29.34l8.96-23.89h-29.34l-8.96,23.89Z"/>
    <path class="st0" d="M123.15,70l12.79-34.1h29.66c2.7,0,4.46.53,5.27,1.59s.79,2.76-.09,5.09l-1.47,3.93c-.68,1.81-1.68,3.18-3,4.11-1.32.93-3.09,1.51-5.31,1.75,2,.21,3.32.88,3.98,2.02s.62,2.67-.1,4.58l-1.63,4.36c-.84,2.25-2.31,3.93-4.39,5.03s-4.84,1.65-8.27,1.65h-27.44ZM162.57,46.9l1.21-3.22c.39-1.05.4-1.77,0-2.18-.39-.41-1.3-.61-2.73-.61h-20.36l-3.28,8.76h20.36c1.54,0,2.62-.2,3.26-.59s1.15-1.11,1.54-2.16ZM135.55,54.64l-3.89,10.37h20.36c1.51,0,2.66-.28,3.45-.84.79-.56,1.46-1.56,2-3.01l1-2.67c.53-1.41.61-2.41.23-2.99-.38-.58-1.31-.86-2.79-.86h-20.36Z"/>
    <path class="st0" d="M186.84,43.99c1.17-3.12,2.57-5.24,4.21-6.38s4.12-1.71,7.44-1.71h25.37c3.32,0,5.37.57,6.16,1.71s.6,3.27-.57,6.38l-6.73,17.95c-1.17,3.12-2.56,5.24-4.19,6.36-1.62,1.13-4.11,1.69-7.45,1.69h-25.37c-3.37,0-5.44-.56-6.21-1.67-.77-1.11-.57-3.24.61-6.38l6.73-17.95ZM185.65,64.85h29.34l8.96-23.89h-29.34l-8.96,23.89Z"/>
    <path class="st0" d="M236.76,70l12.79-34.1h34.96l-1.9,5.07h-28.33l-3.95,10.53h15.99l-1.87,4.99h-15.99l-5.07,13.52h-6.64Z"/>
    <path class="st0" d="M274.51,70l33.1-34.1h6.07l8.02,34.1h-7.2l-1.58-7.98h-24.28l-7.48,7.98h-6.64ZM293.27,57.11h18.66l-3.27-16.23-15.39,16.23Z"/>
    <path class="st0" d="M377.3,40.97h-24.52l-8.96,23.89h24.52l3.05-8.13,6.18,1.22-1.5,4.01c-1.17,3.12-2.56,5.24-4.19,6.36-1.62,1.13-4.11,1.69-7.45,1.69h-20.64c-3.35,0-5.4-.54-6.17-1.63-.77-1.09-.55-3.23.65-6.42l6.73-17.95c1.19-3.17,2.58-5.31,4.19-6.42,1.6-1.11,4.07-1.67,7.38-1.67h20.64c3.35,0,5.4.57,6.18,1.71s.58,3.27-.59,6.38l-1.21,3.22-7.03,1.06,2.74-7.31Z"/>
    <path class="st0" d="M420.67,40.97l-10.88,29.03h-6.6l10.88-29.03h-16.59l1.9-5.07h39.86l-1.9,5.07h-16.67Z"/>
    <path class="st0" d="M551.85,70l12.79-34.1h35.37l-1.9,5.07h-28.73l-3.28,8.76h17.32l-1.9,5.07h-17.32l-3.83,10.21h29.06l-1.87,4.99h-35.69Z"/>
    <path class="st0" d="M474.82,62.95l-1.15-3.06-5.67,2-2.01.71-1.51-4.04-8.69-23.17-6.24,2.2,8.69,23.17.49,1.3c1.05,2.79,2.29,4.54,3.73,5.27.07.04.14.08.21.11,1.2.52,2.91.48,5.11-.1.6-.16,1.22-.34,1.89-.58l.15-.05,5.68-2.01c-.06-.16-.13-.3-.19-.47l-.49-1.3Z"/>
    <path class="st0" d="M481.72,62.52l5.32-1.88.15-.05c.64-.23,1.22-.46,1.76-.7,2.11-.94,3.47-1.98,4.06-3.13.03-.07.06-.14.09-.21.62-1.44.41-3.57-.64-6.38l-.49-1.3-8.69-23.17-6.31,2.23,8.69,23.17,1.51,4.04-1.94.68-5.32,1.88,1.15,3.06.67,1.78Z"/>
    <polygon class="st0" points="465.58 38.68 460 23.79 455.4 25.42 460.98 40.3 465.58 38.68"/>
    <polygon class="st0" points="476.31 34.88 470.73 20 466.13 21.63 471.71 36.51 476.31 34.88"/>
    <path class="st0" d="M481.05,60.74l-1.15-3.06-6.24,2.2,1.15,3.06.49,1.3c.06.16.13.31.19.47l6.23-2.2-.67-1.78Z"/>
    <path class="st0" d="M502.12,70c2.62,0,4.69-.52,6.23-1.55,1.53-1.04,2.74-2.72,3.61-5.05l2.43-6.47c.28-.75,2.2-5.87,2.52-6.73h0c.52-1.37,1.23-3.28,1.75-4.66.94-2.9,2.07-4.77,5.51-4.66,0,0,9.54,0,9.54,0,2.87.02,3.38.9,2.47,3.46-3.02,8.4-2.49,7.53-11.44,7.54-2.82-.09-6.62,3.49-5,6.29,0,0,7.96,11.82,7.96,11.82h8.86l-10.49-13.36c6.65.07,11.9.57,14.46-6.52,0,0,2.86-7.62,2.86-7.62.7-1.87.85-3.3.5-4.34-.66-1.83-2.38-2.16-5.39-2.26,0,0-15.37,0-15.37,0-9.05-.12-9.56,6.39-12.27,13.08-.63,1.64-1.89,5.07-2.52,6.73h0c-.52,1.37-1.23,3.28-1.75,4.66-.45,1.35-1.24,3.26-2.26,3.87-1.29,1.11-5.11.72-6.91.79h-13.17c-.96,0-1.82-.58-2.15-1.46l-.39-1.03-6.23,2.2c1.41,3.15,2.38,4.83,5.04,5.22l21.59.06Z"/>
  </g>
  <g>
    <path class="st0" d="M6.18,18L0,0h2.87l4.61,14.3L12.52,0h1.74l4.86,14.3L23.78,0h2.55l-6.18,18h-2.11l-4.73-13.61-4.89,13.61h-2.24Z"/>
    <path class="st0" d="M32.34,6.73c0-1.35.24-2.27.73-2.77s1.39-.74,2.71-.74h10.12c1.32,0,2.23.25,2.71.74s.73,1.42.73,2.77v7.78c0,1.35-.24,2.27-.72,2.76s-1.38.73-2.72.73h-10.12c-1.34,0-2.25-.24-2.73-.72s-.71-1.4-.71-2.77v-7.78ZM34.98,15.77h11.7V5.42h-11.7v10.35Z"/>
    <path class="st0" d="M56.62,18V3.22h11.26c1.04,0,1.79.22,2.25.67s.69,1.18.69,2.19v3.3c0,1-.23,1.72-.69,2.16s-1.21.66-2.25.66h-1.86l6.18,5.79h-3.53l-5.58-5.79h-3.82v5.79h-2.65ZM66.72,5.38h-7.45v4.77h7.45c.59,0,.99-.1,1.19-.31s.31-.6.31-1.19v-1.77c0-.54-.11-.93-.32-1.16s-.61-.34-1.18-.34Z"/>
    <path class="st0" d="M78.76,18V3.22h2.65v6.33l8.84-6.33h3.68l-10.34,7.14,11.49,7.65h-4.32l-9.34-6.62v6.62h-2.65Z"/>
    <path class="st0" d="M101.14,18V3.22h14.1v2.2h-11.46v3.8h6.91v2.2h-6.91v4.43h11.59v2.16h-14.23Z"/>
    <path class="st0" d="M122.07,18V3.22h11.26c1.04,0,1.79.22,2.25.67s.69,1.18.69,2.19v3.3c0,1-.23,1.72-.69,2.16s-1.21.66-2.25.66h-1.86l6.18,5.79h-3.53l-5.58-5.79h-3.82v5.79h-2.65ZM132.17,5.38h-7.45v4.77h7.45c.59,0,.99-.1,1.19-.31s.31-.6.31-1.19v-1.77c0-.54-.11-.93-.32-1.16s-.61-.34-1.18-.34Z"/>
    <path class="st0" d="M143.45,9.98v-2.55h7.2v2.55h-7.2Z"/>
    <path class="st0" d="M158.03,18V3.22h11.83c1.09,0,1.87.22,2.35.66s.72,1.18.72,2.2v3.3c0,1-.24,1.72-.72,2.16s-1.26.66-2.35.66h-9.18v5.79h-2.65ZM168.66,5.38h-7.99v4.67h7.99c.59,0,1-.11,1.23-.32s.35-.57.35-1.08v-1.87c0-.51-.11-.87-.34-1.08s-.64-.32-1.24-.32Z"/>
    <path class="st0" d="M179.7,18V3.22h2.65v12.55h10.89v2.23h-13.54Z"/>
    <path class="st0" d="M198.45,18l8.1-14.78h2.42l8.29,14.78h-2.87l-1.82-3.46h-9.68l-1.79,3.46h-2.65ZM204,12.41h7.44l-3.73-7.03-3.71,7.03Z"/>
    <path class="st0" d="M235.54,5.42h-9.78v10.35h9.78v-3.53l2.65.53v1.74c0,1.35-.24,2.27-.72,2.76s-1.38.73-2.72.73h-8.23c-1.33,0-2.23-.24-2.7-.71s-.7-1.4-.7-2.78v-7.78c0-1.37.24-2.3.71-2.78s1.37-.72,2.69-.72h8.23c1.33,0,2.24.25,2.72.74s.72,1.42.72,2.77v1.4l-2.65.46v-3.17Z"/>
    <path class="st0" d="M245.19,18V3.22h14.1v2.2h-11.46v3.8h6.91v2.2h-6.91v4.43h11.59v2.16h-14.23Z"/>
    <path class="st0" d="M268.24,5.96c0,.22.01.51.03.89.02.61.03,1,.03,1.18v9.98h-2.18V3.22h2.18l6.97,9.59,6.41-9.59h2.45v14.78h-2.45v-9.98c0-.36.01-.72.04-1.06s.07-.67.12-.99c-.15.47-.31.88-.47,1.23s-.31.63-.45.81l-5.39,7.65h-.69l-5.58-7.58c-.19-.26-.38-.57-.55-.92s-.33-.75-.47-1.21Z"/>
    <path class="st0" d="M291.63,18V3.22h14.1v2.2h-11.46v3.8h6.91v2.2h-6.91v4.43h11.59v2.16h-14.23Z"/>
    <path class="st0" d="M314.8,6.18c.06.43.11.87.15,1.31s.05.89.05,1.33v9.18h-2.44V3.22h2.02l10.28,9.66c.3.27.59.57.86.9s.55.7.81,1.12c-.08-.44-.13-.89-.17-1.35s-.06-.93-.06-1.41V3.22h2.44v14.78h-1.81l-10.49-9.79c-.37-.36-.68-.71-.94-1.03s-.5-.66-.7-1Z"/>
    <path class="st0" d="M344.22,5.42v12.58h-2.63V5.42h-6.62v-2.2h15.89v2.2h-6.65Z"/>
    <path class="st0" d="M370.5,18V3.22h11.83c1.09,0,1.87.22,2.35.66s.72,1.18.72,2.2v3.3c0,1-.24,1.72-.72,2.16s-1.26.66-2.35.66h-9.18v5.79h-2.65ZM381.13,5.38h-7.99v4.67h7.99c.59,0,1-.11,1.23-.32s.35-.57.35-1.08v-1.87c0-.51-.11-.87-.34-1.08s-.64-.32-1.24-.32Z"/>
    <path class="st0" d="M394.81,3.22v12.55h10.23V3.22h2.68v11.29c0,1.36-.24,2.28-.72,2.77s-1.38.72-2.72.72h-8.68c-1.33,0-2.24-.24-2.72-.73s-.72-1.41-.72-2.76V3.22h2.65Z"/>
    <path class="st0" d="M414.66,18v-1.33l10.58-11.26h-9.62v-2.2h13.81v1.18l-10.68,11.38h10.68v2.23h-14.78Z"/>
    <path class="st0" d="M436.47,18v-1.33l10.58-11.26h-9.62v-2.2h13.81v1.18l-10.68,11.38h10.68v2.23h-14.78Z"/>
    <path class="st0" d="M458.69,18V3.22h2.65v12.55h10.89v2.23h-13.54Z"/>
    <path class="st0" d="M478.53,18V3.22h14.1v2.2h-11.46v3.8h6.91v2.2h-6.91v4.43h11.59v2.16h-14.23Z"/>
    <path class="st0" d="M526.77,5.42h-11.07v10.35h11.07v-4.02h-5.71v-2.01h8.36v4.77c0,1.35-.24,2.27-.72,2.76s-1.38.73-2.72.73h-9.49c-1.33,0-2.24-.24-2.72-.72s-.72-1.4-.72-2.77v-7.78c0-1.35.24-2.27.73-2.77s1.39-.74,2.71-.74h9.49c1.3,0,2.2.24,2.69.73s.74,1.35.74,2.57v.43l-2.65.48v-2.01Z"/>
    <path class="st0" d="M535.11,18l8.1-14.78h2.42l8.29,14.78h-2.87l-1.82-3.46h-9.68l-1.79,3.46h-2.65ZM540.66,12.41h7.44l-3.73-7.03-3.71,7.03Z"/>
    <path class="st0" d="M562.38,5.96c0,.22.01.51.03.89.02.61.03,1,.03,1.18v9.98h-2.18V3.22h2.18l6.97,9.59,6.41-9.59h2.45v14.78h-2.45v-9.98c0-.36.01-.72.04-1.06s.07-.67.12-.99c-.15.47-.31.88-.47,1.23s-.31.63-.45.81l-5.39,7.65h-.69l-5.58-7.58c-.19-.26-.38-.57-.55-.92s-.33-.75-.47-1.21Z"/>
    <path class="st0" d="M585.77,18V3.22h14.1v2.2h-11.46v3.8h6.91v2.2h-6.91v4.43h11.59v2.16h-14.23Z"/>
  </g>
</svg>