<?xml version="1.0" encoding="UTF-8"?>
<svg id="_レイヤー_1" data-name="レイヤー_1" xmlns="http://www.w3.org/2000/svg" version="1.1" viewBox="0 0 120 120">
  <!-- Generator: Adobe Illustrator 30.2.1, SVG Export Plug-In . SVG Version: 2.1.1 Build 1)  -->
  <defs>
    <style>
      .st0 {
        stroke-width: 55px;
      }

      .st0, .st1 {
        fill: none;
        stroke: #fff;
      }

      .st1 {
        stroke-width: 2px;
      }
    </style>
  </defs>
  <g>
    <g>
      <path d="M123.63,88.87h21.24c.78,0,1.42.64,1.42,1.42v63.68c0,.78-.63,1.42-1.42,1.42h-21.24c-.78,0-1.42-.64-1.42-1.42v-63.68c0-.78.64-1.42,1.42-1.42Z"/>
      <rect x="-38.09" y="38.9" width="24.07" height="66.52" rx="1.4" ry="1.4" transform="translate(-39.57 -3.36) rotate(-30)"/>
      <g>
        <rect x="66.92" y="185.04" width="28.13" height="70.56" rx="1.42" ry="1.42"/>
        <rect x="27.17" y="184.96" width="28.13" height="70.56" rx="1.42" ry="1.42"/>
      </g>
      <path d="M116.65,168.71c4.09-.24,15.77,1.09,17.98,4.79,4.05,6.79.38,15.72-2.11,22.28l-3.74,9.83c-2.23,5.85-3.44,12.4-2.27,18.69,1.76,9.51,16.85,11.32,24.37,9.9.4,1.12,1.29,2.29,2.32,2.44,3.57.52,6.88.89,10.4,1.15,2.07.15,3.24-1.42,3.31-3.37l4.02-1.04c.53-.14.9-1.51.63-1.94-.22-.36-1.15-.88-1.57-.82l-2.9.44c-1.83-4,3.59-1.12,3.92-3.84.11-.89-.99-1.84-1.81-1.86l-2.69-.08c-.41-.94-.78-1.84-1.13-2.27-.35-.42-1.63-.64-2.23-.49l-10.37,2.64c-1.35.34-2.35,1.59-2.93,2.74-3.3,1.63-16.42-.04-17.22-4.63-.91-5.21.04-10.58,1.9-15.43l4.05-10.55c2.58-6.74,5.16-13.87,3.54-21.09-1.42-9-16.64-13.92-25.46-13.75v6.27h.13-.13"/>
      <path d="M113.96,80.29H8.25c-1.52,0-2.75,1.23-2.75,2.75v93.67c0,1.52,1.23,2.75,2.75,2.75h105.71c1.52,0,2.75-1.23,2.75-2.75v-93.67c0-1.52-1.23-2.75-2.75-2.75ZM42.06,134.55c-3.68,0-6.66-2.98-6.66-6.66s2.98-6.66,6.66-6.66,6.66,2.98,6.66,6.66-2.98,6.66-6.66,6.66ZM60.43,134.55c-3.68,0-6.66-2.98-6.66-6.66s2.98-6.66,6.66-6.66,6.66,2.98,6.66,6.66-2.98,6.66-6.66,6.66ZM77.73,134.55c-3.68,0-6.66-2.98-6.66-6.66s2.98-6.66,6.66-6.66,6.66,2.98,6.66,6.66-2.98,6.66-6.66,6.66ZM84.21,114.63h-46.21c-1.63,0-2.93-1.41-2.75-3.03,1.5-12.95,12.5-22.99,25.85-22.99s24.35,10.05,25.85,22.99c.19,1.62-1.12,3.03-2.75,3.03Z"/>
      <g>
        <path d="M30.51,30.37c-3.42-2.05-5.87-4.48-7.03-7.15-10.14,12.36-16.45,29.66-16.45,48.83v.03c0,1.51,1.24,2.72,2.75,2.72h12.16c-.94-6.59-.74-14.46.85-22.76,1.61-8.38,4.36-15.86,7.72-21.66Z"/>
        <path d="M97.76,22.09c-.84,2.89-3.17,5.53-6.62,7.76,3.49,5.87,6.37,13.54,8.03,22.18,1.59,8.3,1.79,16.17.85,22.76h12.41c1.51,0,2.75-1.21,2.75-2.72v-.03c0-19.76-6.72-37.53-17.42-49.95Z"/>
        <path d="M87.73,31.76c-6.88,3.32-16.57,5.37-27.3,5.37s-19.62-1.89-26.44-4.98c-3.05,5.16-5.76,12.15-7.38,20.61-1.64,8.54-1.68,16.08-.72,22.03h70.2c.95-5.95.92-13.49-.72-22.03-1.67-8.67-4.48-15.81-7.62-21ZM41.65,59.31c-3.46,0-6.26-2.8-6.26-6.26s2.8-6.26,6.26-6.26,6.26,2.8,6.26,6.26-2.8,6.26-6.26,6.26ZM80.56,59.31c-3.46,0-6.26-2.8-6.26-6.26s2.8-6.26,6.26-6.26,6.26,2.8,6.26,6.26-2.8,6.26-6.26,6.26Z"/>
        <path d="M27.89,22.77c3.45,5.37,15.69,10.49,32.54,10.49s29.09-5.12,32.55-10.49c-10.36-.83-21.3-1.25-32.55-1.25s-22.18.42-32.54,1.25Z"/>
        <path d="M94.98,19.05c-9.27-9.37-21.05-14.99-33.87-14.99s-24.51,5.57-33.76,14.87c10.54-.85,21.64-1.3,33.08-1.3s23.58.48,34.55,1.42Z"/>
      </g>
    </g>
    <g>
      <g>
        <path class="st0" d="M123.63,88.87h21.24c.78,0,1.42.64,1.42,1.42v63.68c0,.78-.63,1.42-1.42,1.42h-21.24c-.78,0-1.42-.64-1.42-1.42v-63.68c0-.78.64-1.42,1.42-1.42Z"/>
        <path class="st0" d="M123.63,88.87h21.24c.78,0,1.42.64,1.42,1.42v63.68c0,.78-.63,1.42-1.42,1.42h-21.24c-.78,0-1.42-.64-1.42-1.42v-63.68c0-.78.64-1.42,1.42-1.42Z"/>
      </g>
      <g>
        <rect class="st0" x="-38.09" y="38.9" width="24.07" height="66.52" rx="1.4" ry="1.4" transform="translate(-39.57 -3.36) rotate(-30)"/>
        <rect class="st0" x="-38.09" y="38.9" width="24.07" height="66.52" rx="1.4" ry="1.4" transform="translate(-39.57 -3.36) rotate(-30)"/>
      </g>
      <g>
        <g>
          <rect class="st0" x="66.92" y="185.04" width="28.13" height="70.56" rx="1.42" ry="1.42"/>
          <rect class="st0" x="66.92" y="185.04" width="28.13" height="70.56" rx="1.42" ry="1.42"/>
        </g>
        <g>
          <rect class="st0" x="27.17" y="184.96" width="28.13" height="70.56" rx="1.42" ry="1.42"/>
          <rect class="st0" x="27.17" y="184.96" width="28.13" height="70.56" rx="1.42" ry="1.42"/>
        </g>
      </g>
      <path class="st0" d="M116.65,168.71c4.09-.24,15.77,1.09,17.98,4.79,4.05,6.79.38,15.72-2.11,22.28l-3.74,9.83c-2.23,5.85-3.44,12.4-2.27,18.69,1.76,9.51,16.85,11.32,24.37,9.9.4,1.12,1.29,2.29,2.32,2.44,3.57.52,6.88.89,10.4,1.15,2.07.15,3.24-1.42,3.31-3.37l4.02-1.04c.53-.14.9-1.51.63-1.94-.22-.36-1.15-.88-1.57-.82l-2.9.44c-1.83-4,3.59-1.12,3.92-3.84.11-.89-.99-1.84-1.81-1.86l-2.69-.08c-.41-.94-.78-1.84-1.13-2.27-.35-.42-1.63-.64-2.23-.49l-10.37,2.64c-1.35.34-2.35,1.59-2.93,2.74-3.3,1.63-16.42-.04-17.22-4.63-.91-5.21.04-10.58,1.9-15.43l4.05-10.55c2.58-6.74,5.16-13.87,3.54-21.09-1.42-9-16.64-13.92-25.46-13.75v6.27h.13-.13"/>
      <path class="st0" d="M113.96,80.29H8.25c-1.52,0-2.75,1.23-2.75,2.75v93.67c0,1.52,1.23,2.75,2.75,2.75h105.71c1.52,0,2.75-1.23,2.75-2.75v-93.67c0-1.52-1.23-2.75-2.75-2.75ZM42.06,134.55c-3.68,0-6.66-2.98-6.66-6.66s2.98-6.66,6.66-6.66,6.66,2.98,6.66,6.66-2.98,6.66-6.66,6.66ZM60.43,134.55c-3.68,0-6.66-2.98-6.66-6.66s2.98-6.66,6.66-6.66,6.66,2.98,6.66,6.66-2.98,6.66-6.66,6.66ZM77.73,134.55c-3.68,0-6.66-2.98-6.66-6.66s2.98-6.66,6.66-6.66,6.66,2.98,6.66,6.66-2.98,6.66-6.66,6.66ZM84.21,114.63h-46.21c-1.63,0-2.93-1.41-2.75-3.03,1.5-12.95,12.5-22.99,25.85-22.99s24.35,10.05,25.85,22.99c.19,1.62-1.12,3.03-2.75,3.03Z"/>
      <g>
        <path class="st0" d="M30.51,30.37c-3.42-2.05-5.87-4.48-7.03-7.15-10.14,12.36-16.45,29.66-16.45,48.83v.03c0,1.51,1.24,2.72,2.75,2.72h12.16c-.94-6.59-.74-14.46.85-22.76,1.61-8.38,4.36-15.86,7.72-21.66Z"/>
        <path class="st0" d="M97.76,22.09c-.84,2.89-3.17,5.53-6.62,7.76,3.49,5.87,6.37,13.54,8.03,22.18,1.59,8.3,1.79,16.17.85,22.76h12.41c1.51,0,2.75-1.21,2.75-2.72v-.03c0-19.76-6.72-37.53-17.42-49.95Z"/>
        <path class="st0" d="M87.73,31.76c-6.88,3.32-16.57,5.37-27.3,5.37s-19.62-1.89-26.44-4.98c-3.05,5.16-5.76,12.15-7.38,20.61-1.64,8.54-1.68,16.08-.72,22.03h70.2c.95-5.95.92-13.49-.72-22.03-1.67-8.67-4.48-15.81-7.62-21ZM41.65,59.31c-3.46,0-6.26-2.8-6.26-6.26s2.8-6.26,6.26-6.26,6.26,2.8,6.26,6.26-2.8,6.26-6.26,6.26ZM80.56,59.31c-3.46,0-6.26-2.8-6.26-6.26s2.8-6.26,6.26-6.26,6.26,2.8,6.26,6.26-2.8,6.26-6.26,6.26Z"/>
        <path class="st0" d="M27.89,22.77c3.45,5.37,15.69,10.49,32.54,10.49s29.09-5.12,32.55-10.49c-10.36-.83-21.3-1.25-32.55-1.25s-22.18.42-32.54,1.25Z"/>
        <path class="st0" d="M94.98,19.05c-9.27-9.37-21.05-14.99-33.87-14.99s-24.51,5.57-33.76,14.87c10.54-.85,21.64-1.3,33.08-1.3s23.58.48,34.55,1.42Z"/>
      </g>
    </g>
  </g>
  <g>
    <g>
      <path d="M123.63,88.87h21.24c.78,0,1.42.64,1.42,1.42v63.68c0,.78-.63,1.42-1.42,1.42h-21.24c-.78,0-1.42-.64-1.42-1.42v-63.68c0-.78.64-1.42,1.42-1.42Z"/>
      <rect x="-38.09" y="38.9" width="24.07" height="66.52" rx="1.4" ry="1.4" transform="translate(-39.57 -3.36) rotate(-30)"/>
      <g>
        <rect x="66.92" y="185.04" width="28.13" height="70.56" rx="1.42" ry="1.42"/>
        <rect x="27.17" y="184.96" width="28.13" height="70.56" rx="1.42" ry="1.42"/>
      </g>
      <path d="M116.65,168.71c4.09-.24,15.77,1.09,17.98,4.79,4.05,6.79.38,15.72-2.11,22.28l-3.74,9.83c-2.23,5.85-3.44,12.4-2.27,18.69,1.76,9.51,16.85,11.32,24.37,9.9.4,1.12,1.29,2.29,2.32,2.44,3.57.52,6.88.89,10.4,1.15,2.07.15,3.24-1.42,3.31-3.37l4.02-1.04c.53-.14.9-1.51.63-1.94-.22-.36-1.15-.88-1.57-.82l-2.9.44c-1.83-4,3.59-1.12,3.92-3.84.11-.89-.99-1.84-1.81-1.86l-2.69-.08c-.41-.94-.78-1.84-1.13-2.27-.35-.42-1.63-.64-2.23-.49l-10.37,2.64c-1.35.34-2.35,1.59-2.93,2.74-3.3,1.63-16.42-.04-17.22-4.63-.91-5.21.04-10.58,1.9-15.43l4.05-10.55c2.58-6.74,5.16-13.87,3.54-21.09-1.42-9-16.64-13.92-25.46-13.75v6.27h.13-.13"/>
      <path d="M113.96,80.29H8.25c-1.52,0-2.75,1.23-2.75,2.75v93.67c0,1.52,1.23,2.75,2.75,2.75h105.71c1.52,0,2.75-1.23,2.75-2.75v-93.67c0-1.52-1.23-2.75-2.75-2.75ZM42.06,134.55c-3.68,0-6.66-2.98-6.66-6.66s2.98-6.66,6.66-6.66,6.66,2.98,6.66,6.66-2.98,6.66-6.66,6.66ZM60.43,134.55c-3.68,0-6.66-2.98-6.66-6.66s2.98-6.66,6.66-6.66,6.66,2.98,6.66,6.66-2.98,6.66-6.66,6.66ZM77.73,134.55c-3.68,0-6.66-2.98-6.66-6.66s2.98-6.66,6.66-6.66,6.66,2.98,6.66,6.66-2.98,6.66-6.66,6.66ZM84.21,114.63h-46.21c-1.63,0-2.93-1.41-2.75-3.03,1.5-12.95,12.5-22.99,25.85-22.99s24.35,10.05,25.85,22.99c.19,1.62-1.12,3.03-2.75,3.03Z"/>
      <g>
        <path d="M30.51,30.37c-3.42-2.05-5.87-4.48-7.03-7.15-10.14,12.36-16.45,29.66-16.45,48.83v.03c0,1.51,1.24,2.72,2.75,2.72h12.16c-.94-6.59-.74-14.46.85-22.76,1.61-8.38,4.36-15.86,7.72-21.66Z"/>
        <path d="M97.76,22.09c-.84,2.89-3.17,5.53-6.62,7.76,3.49,5.87,6.37,13.54,8.03,22.18,1.59,8.3,1.79,16.17.85,22.76h12.41c1.51,0,2.75-1.21,2.75-2.72v-.03c0-19.76-6.72-37.53-17.42-49.95Z"/>
        <path d="M87.73,31.76c-6.88,3.32-16.57,5.37-27.3,5.37s-19.62-1.89-26.44-4.98c-3.05,5.16-5.76,12.15-7.38,20.61-1.64,8.54-1.68,16.08-.72,22.03h70.2c.95-5.95.92-13.49-.72-22.03-1.67-8.67-4.48-15.81-7.62-21ZM41.65,59.31c-3.46,0-6.26-2.8-6.26-6.26s2.8-6.26,6.26-6.26,6.26,2.8,6.26,6.26-2.8,6.26-6.26,6.26ZM80.56,59.31c-3.46,0-6.26-2.8-6.26-6.26s2.8-6.26,6.26-6.26,6.26,2.8,6.26,6.26-2.8,6.26-6.26,6.26Z"/>
        <path d="M27.89,22.77c3.45,5.37,15.69,10.49,32.54,10.49s29.09-5.12,32.55-10.49c-10.36-.83-21.3-1.25-32.55-1.25s-22.18.42-32.54,1.25Z"/>
        <path d="M94.98,19.05c-9.27-9.37-21.05-14.99-33.87-14.99s-24.51,5.57-33.76,14.87c10.54-.85,21.64-1.3,33.08-1.3s23.58.48,34.55,1.42Z"/>
      </g>
    </g>
    <g>
      <g>
        <path class="st1" d="M123.63,88.87h21.24c.78,0,1.42.64,1.42,1.42v63.68c0,.78-.63,1.42-1.42,1.42h-21.24c-.78,0-1.42-.64-1.42-1.42v-63.68c0-.78.64-1.42,1.42-1.42Z"/>
        <path class="st1" d="M123.63,88.87h21.24c.78,0,1.42.64,1.42,1.42v63.68c0,.78-.63,1.42-1.42,1.42h-21.24c-.78,0-1.42-.64-1.42-1.42v-63.68c0-.78.64-1.42,1.42-1.42Z"/>
      </g>
      <g>
        <rect class="st1" x="-38.09" y="38.9" width="24.07" height="66.52" rx="1.4" ry="1.4" transform="translate(-39.57 -3.36) rotate(-30)"/>
        <rect class="st1" x="-38.09" y="38.9" width="24.07" height="66.52" rx="1.4" ry="1.4" transform="translate(-39.57 -3.36) rotate(-30)"/>
      </g>
      <g>
        <g>
          <rect class="st1" x="66.92" y="185.04" width="28.13" height="70.56" rx="1.42" ry="1.42"/>
          <rect class="st1" x="66.92" y="185.04" width="28.13" height="70.56" rx="1.42" ry="1.42"/>
        </g>
        <g>
          <rect class="st1" x="27.17" y="184.96" width="28.13" height="70.56" rx="1.42" ry="1.42"/>
          <rect class="st1" x="27.17" y="184.96" width="28.13" height="70.56" rx="1.42" ry="1.42"/>
        </g>
      </g>
      <path class="st1" d="M116.65,168.71c4.09-.24,15.77,1.09,17.98,4.79,4.05,6.79.38,15.72-2.11,22.28l-3.74,9.83c-2.23,5.85-3.44,12.4-2.27,18.69,1.76,9.51,16.85,11.32,24.37,9.9.4,1.12,1.29,2.29,2.32,2.44,3.57.52,6.88.89,10.4,1.15,2.07.15,3.24-1.42,3.31-3.37l4.02-1.04c.53-.14.9-1.51.63-1.94-.22-.36-1.15-.88-1.57-.82l-2.9.44c-1.83-4,3.59-1.12,3.92-3.84.11-.89-.99-1.84-1.81-1.86l-2.69-.08c-.41-.94-.78-1.84-1.13-2.27-.35-.42-1.63-.64-2.23-.49l-10.37,2.64c-1.35.34-2.35,1.59-2.93,2.74-3.3,1.63-16.42-.04-17.22-4.63-.91-5.21.04-10.58,1.9-15.43l4.05-10.55c2.58-6.74,5.16-13.87,3.54-21.09-1.42-9-16.64-13.92-25.46-13.75v6.27h.13-.13"/>
      <path class="st1" d="M113.96,80.29H8.25c-1.52,0-2.75,1.23-2.75,2.75v93.67c0,1.52,1.23,2.75,2.75,2.75h105.71c1.52,0,2.75-1.23,2.75-2.75v-93.67c0-1.52-1.23-2.75-2.75-2.75ZM42.06,134.55c-3.68,0-6.66-2.98-6.66-6.66s2.98-6.66,6.66-6.66,6.66,2.98,6.66,6.66-2.98,6.66-6.66,6.66ZM60.43,134.55c-3.68,0-6.66-2.98-6.66-6.66s2.98-6.66,6.66-6.66,6.66,2.98,6.66,6.66-2.98,6.66-6.66,6.66ZM77.73,134.55c-3.68,0-6.66-2.98-6.66-6.66s2.98-6.66,6.66-6.66,6.66,2.98,6.66,6.66-2.98,6.66-6.66,6.66ZM84.21,114.63h-46.21c-1.63,0-2.93-1.41-2.75-3.03,1.5-12.95,12.5-22.99,25.85-22.99s24.35,10.05,25.85,22.99c.19,1.62-1.12,3.03-2.75,3.03Z"/>
      <g>
        <path class="st1" d="M30.51,30.37c-3.42-2.05-5.87-4.48-7.03-7.15-10.14,12.36-16.45,29.66-16.45,48.83v.03c0,1.51,1.24,2.72,2.75,2.72h12.16c-.94-6.59-.74-14.46.85-22.76,1.61-8.38,4.36-15.86,7.72-21.66Z"/>
        <path class="st1" d="M97.76,22.09c-.84,2.89-3.17,5.53-6.62,7.76,3.49,5.87,6.37,13.54,8.03,22.18,1.59,8.3,1.79,16.17.85,22.76h12.41c1.51,0,2.75-1.21,2.75-2.72v-.03c0-19.76-6.72-37.53-17.42-49.95Z"/>
        <path class="st1" d="M87.73,31.76c-6.88,3.32-16.57,5.37-27.3,5.37s-19.62-1.89-26.44-4.98c-3.05,5.16-5.76,12.15-7.38,20.61-1.64,8.54-1.68,16.08-.72,22.03h70.2c.95-5.95.92-13.49-.72-22.03-1.67-8.67-4.48-15.81-7.62-21ZM41.65,59.31c-3.46,0-6.26-2.8-6.26-6.26s2.8-6.26,6.26-6.26,6.26,2.8,6.26,6.26-2.8,6.26-6.26,6.26ZM80.56,59.31c-3.46,0-6.26-2.8-6.26-6.26s2.8-6.26,6.26-6.26,6.26,2.8,6.26,6.26-2.8,6.26-6.26,6.26Z"/>
        <path class="st1" d="M27.89,22.77c3.45,5.37,15.69,10.49,32.54,10.49s29.09-5.12,32.55-10.49c-10.36-.83-21.3-1.25-32.55-1.25s-22.18.42-32.54,1.25Z"/>
        <path class="st1" d="M94.98,19.05c-9.27-9.37-21.05-14.99-33.87-14.99s-24.51,5.57-33.76,14.87c10.54-.85,21.64-1.3,33.08-1.3s23.58.48,34.55,1.42Z"/>
      </g>
    </g>
  </g>
</svg>