<?xml version="1.0" encoding="UTF-8"?>
<svg id="_レイヤー_1" data-name="レイヤー_1" xmlns="http://www.w3.org/2000/svg" version="1.1" viewBox="0 0 100 500">
  <!-- Generator: Adobe Illustrator 30.2.1, SVG Export Plug-In . SVG Version: 2.1.1 Build 1)  -->
  <defs>
    <style>
      .st0 {
        stroke-miterlimit: 10;
      }

      .st0, .st1, .st2, .st3, .st4, .st5 {
        fill: none;
      }

      .st0, .st3, .st5 {
        stroke: #fff;
      }

      .st6 {
        fill: #231815;
      }

      .st7 {
        fill: #fff;
      }

      .st8 {
        fill: #053994;
      }

      .st8, .st9 {
        display: none;
      }

      .st1, .st2 {
        stroke: #231815;
        stroke-linecap: round;
        stroke-linejoin: round;
      }

      .st2 {
        stroke-width: .25px;
      }

      .st3 {
        stroke-width: 2px;
      }

      .st4 {
        stroke: #000;
      }
    </style>
  </defs>
  <rect class="st8" x="-10" y="-10" width="120" height="520"/>
  <g>
    <g id="_コンセント" data-name="コンセント" class="st9">
      <g>
        <rect class="st7" x="31.3" y="6.06" width="37.4" height="64.67" rx="5" ry="5"/>
        <rect class="st2" x="31.3" y="6.06" width="37.4" height="64.67" rx="5" ry="5"/>
      </g>
      <rect class="st2" x="42.32" y="19.63" width="15.36" height="37.44"/>
      <g>
        <rect class="st6" x="45.91" y="26.88" width="1.24" height="4.25"/>
        <rect class="st6" x="52.84" y="27.13" width="1.25" height="3.75"/>
      </g>
      <rect class="st6" x="44.5" y="43.98" width="11" height="7" rx="1" ry="1"/>
    </g>
    <path class="st1" d="M50,414.16s1.73-267.16-1.1-357.32c-.21-6.82,1.3-9.63,1.3-9.63"/>
    <g>
      <g>
        <g>
          <path class="st5" d="M49.04,468.23h30.71c.76,0,1.38.62,1.38,1.38v9.35c0,.76-.62,1.38-1.38,1.38h-30.71c-.76,0-1.38-.62-1.38-1.38v-9.35c0-.76.62-1.38,1.38-1.38Z" transform="translate(-413.99 490.06) rotate(-84.16)"/>
          <path d="M49.04,468.23h30.71c.76,0,1.38.62,1.38,1.38v9.35c0,.76-.62,1.38-1.38,1.38h-30.71c-.76,0-1.38-.62-1.38-1.38v-9.35c0-.76.62-1.38,1.38-1.38Z" transform="translate(-413.99 490.06) rotate(-84.16)"/>
        </g>
        <g>
          <rect class="st5" x="17.37" y="470.23" width="33.47" height="12.12" rx="1.37" ry="1.37" transform="translate(-441.82 437.4) rotate(-81.23)"/>
          <rect x="17.37" y="470.23" width="33.47" height="12.12" rx="1.37" ry="1.37" transform="translate(-441.82 437.4) rotate(-81.23)"/>
        </g>
        <g>
          <rect class="st5" x="52.15" y="384.98" width="35.51" height="14.15" rx="1.39" ry="1.39" transform="translate(-328.25 400.15) rotate(-81.05)"/>
          <rect x="52.15" y="384.98" width="35.51" height="14.15" rx="1.39" ry="1.39" transform="translate(-328.25 400.15) rotate(-81.05)"/>
        </g>
        <g>
          <rect class="st5" x="33.68" y="371.76" width="14.15" height="35.51" rx="1.39" ry="1.39" transform="translate(-15.9 1.99) rotate(-2.34)"/>
          <rect x="33.68" y="371.76" width="14.15" height="35.51" rx="1.39" ry="1.39" transform="translate(-15.9 1.99) rotate(-2.34)"/>
        </g>
        <g>
          <path class="st5" d="M81.14,407.66l-49.56-4.18c-.71-.06-1.34.51-1.41,1.27l-3.96,46.97c-.06.76.46,1.43,1.17,1.49l49.56,4.18c.71.06,1.34-.51,1.41-1.27l3.96-46.97c.06-.76-.46-1.43-1.17-1.49Z"/>
          <path d="M81.14,407.66l-49.56-4.18c-.71-.06-1.34.51-1.41,1.27l-3.96,46.97c-.06.76.46,1.43,1.17,1.49l49.56,4.18c.71.06,1.34-.51,1.41-1.27l3.96-46.97c.06-.76-.46-1.43-1.17-1.49Z"/>
        </g>
        <g>
          <path class="st7" d="M76.91,458.14c-5.14-18.74-20.92-30.82-35.59-27.1-14.67,3.73-22.76,21.88-18.34,40.8.25,1.08,1.32,1.74,2.39,1.47l50.14-12.73c1.07-.27,1.69-1.37,1.4-2.43Z"/>
          <g>
            <path class="st0" d="M61.72,436.13c-.05,1.51-.86,3.09-2.27,4.61,2.43,2.43,4.79,5.82,6.66,9.82,1.81,3.85,2.88,7.67,3.24,11l6.06-1.54c.73-.19,1.19-.93,1-1.67h0c-2.45-9.65-7.93-17.49-14.69-22.22Z"/>
            <path d="M61.72,436.13c-.05,1.51-.86,3.09-2.27,4.61,2.43,2.43,4.79,5.82,6.66,9.82,1.81,3.85,2.88,7.67,3.24,11l6.06-1.54c.73-.19,1.19-.93,1-1.67h0c-2.45-9.65-7.93-17.49-14.69-22.22Z"/>
          </g>
          <g>
            <path class="st5" d="M25.84,445.24c.77,1.3,2.23,2.3,4.19,2.96-.98,3.29-1.43,7.4-1.17,11.81.25,4.25,1.13,8.11,2.4,11.21l-6.06,1.54c-.73.19-1.49-.25-1.68-.98h0c-2.45-9.65-1.37-19.15,2.31-26.54Z"/>
            <path d="M25.84,445.24c.77,1.3,2.23,2.3,4.19,2.96-.98,3.29-1.43,7.4-1.17,11.81.25,4.25,1.13,8.11,2.4,11.21l-6.06,1.54c-.73.19-1.49-.25-1.68-.98h0c-2.45-9.65-1.37-19.15,2.31-26.54Z"/>
          </g>
          <g>
            <path class="st5" d="M43.71,440.4c-5.39,1.38-10.58,2.91-15.45,4.57,2.32,2.17,8.81,3.14,16.9,1.15,8.07-2.11,13.3-6.06,14.31-9.07-5.07.86-10.37,1.99-15.76,3.35Z"/>
            <path d="M43.71,440.4c-5.39,1.38-10.58,2.91-15.45,4.57,2.32,2.17,8.81,3.14,16.9,1.15,8.07-2.11,13.3-6.06,14.31-9.07-5.07.86-10.37,1.99-15.76,3.35Z"/>
          </g>
          <g>
            <path class="st5" d="M41.53,431.59s-.04.01-.06.02c-.02,0-.04,0-.06.01-6.13,1.56-11.07,5.72-14.38,11.42,4.36-1.62,9.92-3.33,16.04-4.89.02,0,.04,0,.06-.02s.04-.01.06-.02c6.13-1.56,11.83-2.7,16.43-3.36-5.64-3.43-11.96-4.73-18.09-3.17Z"/>
            <path d="M41.53,431.59s-.04.01-.06.02c-.02,0-.04,0-.06.01-6.13,1.56-11.07,5.72-14.38,11.42,4.36-1.62,9.92-3.33,16.04-4.89.02,0,.04,0,.06-.02s.04-.01.06-.02c6.13-1.56,11.83-2.7,16.43-3.36-5.64-3.43-11.96-4.73-18.09-3.17Z"/>
          </g>
          <path d="M64.34,451.38c-1.89-4.02-4.14-7.16-6.32-9.3-2.89,2.43-7.27,4.59-12.38,5.93-5.14,1.27-10.01,1.46-13.71.7-.89,2.92-1.38,6.75-1.12,11.19.26,4.37,1.17,8.05,2.38,10.83l17.12-4.35,17.12-4.35c-.27-3.02-1.22-6.69-3.08-10.65Z"/>
        </g>
      </g>
      <g id="_ホバー時目" data-name="ホバー時目" class="st9">
        <polygon class="st7" points="34.11 457.99 38.55 461.97 40.76 456.43 36.32 452.46 34.11 457.99"/>
        <polygon class="st7" points="53.26 453.38 57.71 457.35 59.92 451.82 55.48 447.85 53.26 453.38"/>
      </g>
      <g id="_通常時目" data-name="通常時目">
        <circle class="st7" cx="56.91" cy="452.8" r="3.42"/>
        <circle class="st7" cx="37.43" cy="457.21" r="3.15"/>
      </g>
      <g>
        <g>
          <ellipse class="st7" cx="15.72" cy="422.81" rx="6.37" ry="4.49"/>
          <ellipse class="st3" cx="15.72" cy="422.81" rx="6.37" ry="4.49"/>
          <ellipse class="st4" cx="15.72" cy="422.81" rx="6.37" ry="4.49"/>
        </g>
        <g>
          <ellipse class="st7" cx="19.03" cy="434.4" rx="3.31" ry="1.92"/>
          <ellipse class="st3" cx="19.03" cy="434.4" rx="3.31" ry="1.92"/>
          <ellipse class="st4" cx="19.03" cy="434.4" rx="3.31" ry="1.92"/>
        </g>
        <g>
          <g>
            <path class="st3" d="M82.44,391.68c1.33-2.06,2.11-4.43,2.11-6.96,0-7.82-7.27-14.16-16.23-14.16-3.86,0-7.41,1.18-10.2,3.15-3.54-3.56-9.37-5.89-15.99-5.89-10.8,0-19.55,6.2-19.55,13.84,0,.69.09,1.36.23,2.02-8.78,2.04-15.01,7.19-15.01,13.23,0,5.22,4.66,9.78,11.59,12.23,1.32,7.04,10.99,12.51,22.74,12.51,8.73,0,16.31-3.02,20.18-7.46,3.1,1.59,6.91,2.54,11.04,2.54,10.41,0,18.85-5.98,18.85-13.36,0-5.04-3.95-9.43-9.76-11.7Z"/>
            <path class="st7" d="M82.44,391.68c1.33-2.06,2.11-4.43,2.11-6.96,0-7.82-7.27-14.16-16.23-14.16-3.86,0-7.41,1.18-10.2,3.15-3.54-3.56-9.37-5.89-15.99-5.89-10.8,0-19.55,6.2-19.55,13.84,0,.69.09,1.36.23,2.02-8.78,2.04-15.01,7.19-15.01,13.23,0,5.22,4.66,9.78,11.59,12.23,1.32,7.04,10.99,12.51,22.74,12.51,8.73,0,16.31-3.02,20.18-7.46,3.1,1.59,6.91,2.54,11.04,2.54,10.41,0,18.85-5.98,18.85-13.36,0-5.04-3.95-9.43-9.76-11.7Z"/>
            <path class="st4" d="M82.44,391.68c1.33-2.06,2.11-4.43,2.11-6.96,0-7.82-7.27-14.16-16.23-14.16-3.86,0-7.41,1.18-10.2,3.15-3.54-3.56-9.37-5.89-15.99-5.89-10.8,0-19.55,6.2-19.55,13.84,0,.69.09,1.36.23,2.02-8.78,2.04-15.01,7.19-15.01,13.23,0,5.22,4.66,9.78,11.59,12.23,1.32,7.04,10.99,12.51,22.74,12.51,8.73,0,16.31-3.02,20.18-7.46,3.1,1.59,6.91,2.54,11.04,2.54,10.41,0,18.85-5.98,18.85-13.36,0-5.04-3.95-9.43-9.76-11.7Z"/>
          </g>
          <g>
            <g>
              <path d="M36.96,390.14v-1.5h4.02v-8.05h1.5v2.84h3.92v1.5h-3.92v3.7h4.51v1.5h-10.03Z"/>
              <path d="M48.95,389.34v-7.88h1.61v7.88h-1.61ZM51.55,387.82l1.21-1.09c.68.76,1.93,1.15,3.74,1.15v1.64c-2.31,0-3.96-.57-4.96-1.69ZM52.37,383.25v-1.61h3.81v1.61h-3.81Z"/>
            </g>
            <g>
              <path d="M32.22,403.72c-.68,1.12-1.66,2.09-2.96,2.94l-.82-1.27c.78-.5,1.43-1.06,1.93-1.67h-1.49v-1.45h2.39c.08-.18.15-.35.2-.54h-2.65c-.16,1.57-.5,3.04-1.04,4.42l-1.36-.58c.69-1.76,1.03-4.06,1.03-6.9h8.31v3.06h-2.73c-.04.18-.1.35-.16.54h3.23v1.45h-3.89ZM26.59,398.25v-1.45h9.76v1.45h-9.76ZM34.26,399.86h-5.32l-.02.7h5.34v-.7ZM35.47,406.76l-2.04-1.34.82-1.24,2.04,1.34-.82,1.24Z"/>
              <path d="M39.49,401.98v-4.57h1.61v4.57h-1.61ZM43.2,406.46l-1.39-.82c.86-1.49,1.29-3.49,1.29-5.99,0-.98-.08-1.83-.21-2.6l1.58-.3c.16.85.25,1.81.25,2.9,0,2.8-.5,5.07-1.5,6.8Z"/>
              <path d="M54.92,403.58c-.21-.1-.44-.17-.69-.23v.69c0,.68-.23,1.26-.67,1.72-.45.46-1.01.7-1.68.7-.61,0-1.13-.23-1.54-.66-.42-.45-.63-.99-.63-1.6,0-.84.28-1.49.83-1.97.55-.48,1.24-.7,2.09-.65v-.56h-2.05v-1.5h2.05v-.58h-2.05v-1.5h2.05v-.71h1.61v.71h.62v1.5h-.62v.58h.62v1.5h-.62v.7c.47.1.91.23,1.32.4l-.63,1.48ZM52.62,403.18h-.03c-.85,0-1.28.34-1.28,1.02,0,.16.05.31.17.45.11.14.24.2.4.2.21,0,.4-.08.54-.24.14-.16.2-.34.2-.57v-.87Z"/>
              <path d="M65.02,399.08v1.38c.42.6.63,1.44.63,2.52,0,1.36-.3,2.55-.89,3.58l-1.31-.75c.41-.7.67-1.44.78-2.23-.14.21-.35.4-.64.54-.29.14-.57.21-.84.21-.59,0-1.08-.21-1.48-.64-.41-.43-.61-.94-.61-1.53,0-.82.28-1.46.83-1.94.53-.46,1.2-.65,2.03-.6v-.54h-3.06v-1.61h3.06v-.72h1.5v.72h2.03v1.61h-2.03ZM63.52,401.12h-.18c-.34,0-.62.09-.83.26-.23.18-.34.45-.34.78,0,.17.05.32.17.46.12.14.26.21.42.21.23,0,.41-.09.55-.25.14-.16.21-.35.21-.58v-.89Z"/>
            </g>
            <path d="M73.63,406.8l-1.53-.49.54-1.69,1.53.48-.53,1.7ZM74.43,403.9l-1.45-.42,1.99-6.8,1.45.42-1.99,6.8Z"/>
          </g>
        </g>
      </g>
    </g>
  </g>
</svg>